<?xml version="1.0" encoding="utf-8"?>
<!-- Generator: Adobe Illustrator 24.3.0, SVG Export Plug-In . SVG Version: 6.00 Build 0)  -->
<svg version="1.1" id="Capa_1" xmlns="http://www.w3.org/2000/svg" xmlns:xlink="http://www.w3.org/1999/xlink" x="0px" y="0px"
	 viewBox="0 0 342.336 451.825" enable-background="new 0 0 342.336 451.825" xml:space="preserve">
<g>
	<path fill="#8D9B9B" d="M51.794,443.139c-0.27-1.691-0.557-3.379-0.808-5.073c-0.777-5.235-1.002-10.502-0.86-15.788
		c0.246-9.138,1.553-18.111,4.208-26.871c1.485-4.898,3.411-9.61,5.859-14.112c4.904-9.018,8.038-18.637,9.626-28.77
		c0.679-4.331,1.046-8.687,1.111-13.07c0.004-0.254-0.037-0.518,0.137-0.743c0.324-0.107,0.458,0.163,0.62,0.336
		c3.314,3.551,6.92,6.786,10.663,9.874c0.128,0.106,0.224,0.249,0.336,0.376c-4.054,8.899-7.533,18.02-10.498,27.336
		c-2.508,7.879-4.595,15.873-6.158,23.994c-0.817,4.243-1.463,8.515-1.937,12.816c-0.469,4.263-0.732,8.529-0.805,12.817
		c-0.066,3.857,0.05,7.704,0.387,11.541c0.157,1.786,0.313,3.583,0.732,5.337C60.203,443.139,55.998,443.139,51.794,443.139z"/>
	<path fill="#F7F6F8" d="M49.044,429.306c0.22,3.195,0.404,6.394,0.939,9.557c0.242,1.429,0.52,2.851,0.781,4.276
		c-0.686,0-1.373,0-2.059,0c0-4.636,0-9.272,0-13.908C48.818,429.256,48.931,429.281,49.044,429.306z"/>
	<path fill="#8A9998" d="M49.044,429.306c-0.113-0.025-0.226-0.05-0.339-0.074c0-3.091,0-6.181,0-9.272
		c0.136-0.02,0.272-0.039,0.409-0.058c0.167,0.766-0.035,1.521-0.069,2.281c-0.091,2.083-0.141,4.165,0.065,6.245
		C49.14,428.724,49.174,429.021,49.044,429.306z"/>
	<path fill="#8A9998" d="M120.508,20.77c-1.367-0.074-2.735-0.08-4.103-0.013c-0.001-0.086-0.001-0.171-0.002-0.257
		c1.373,0,2.746,0,4.118,0C120.517,20.59,120.512,20.68,120.508,20.77z"/>
	<path fill="#393939" d="M127.75,260.47c0.175,0.026,0.35,0.053,0.525,0.079c-1.19,1.979-2.443,3.925-3.138,6.157
		c-0.135,0.011-0.271,0.023-0.406,0.034C125.451,264.513,126.329,262.361,127.75,260.47z"/>
	<path fill="#8A9998" d="M124.731,266.741c0.135-0.011,0.271-0.023,0.406-0.034c-0.265,1.033-0.529,2.067-0.794,3.1
		c-0.084-0.001-0.168-0.004-0.252-0.007C124.044,268.726,124.324,267.72,124.731,266.741z"/>
	<path fill="#8D9B9B" d="M124.091,269.8c0.084,0.003,0.168,0.005,0.252,0.007c-0.032,0.877-0.466,1.72-0.218,2.62
		c-0.016,0.149-0.123,0.192-0.249,0.214C123.623,271.67,123.799,270.731,124.091,269.8z"/>
	<path fill="#393939" d="M322.403,365.89c-0.18,0.031-0.298-0.041-0.354-0.215c0.732-0.336,0.487-1.226,0.965-1.706
		c0.104,0.115,0.208,0.23,0.312,0.345C323.147,364.914,322.896,365.473,322.403,365.89z"/>
	<path fill="#8D9B9B" d="M85.114,311.281c-2.535-4.758-3.343-9.676-1.337-14.84c0.343-0.883,0.847-1.684,1.423-2.437
		c0.243-0.318,0.496-0.68,0.049-0.994c-0.423-0.297-0.716,0.028-0.963,0.342c-0.992,1.266-1.671,2.692-2.113,4.232
		c-1.255,4.373-0.574,8.585,1.13,12.687c1.664,4.005,4.137,7.497,6.975,10.744c4.803,5.493,10.415,10.062,16.326,14.287
		c4.434,3.169,9.041,6.069,13.746,8.816c0.473,0.276,0.938,0.567,1.428,0.864c-6.841,6.386-9.801,14.072-8.353,23.288
		c-0.374,0.285-0.611,0.012-0.841-0.123c-12.799-7.482-25.136-15.615-35.997-25.798c-4.739-4.443-9.071-9.247-12.425-14.858
		c-1.391-2.327-2.559-4.759-3.314-7.371c-0.963-3.326-0.784-6.73-0.402-10.089c0.806-7.09,3.47-13.589,6.706-19.876
		c2.364-4.593,5.043-8.975,8.618-12.748c4.194-4.426,9.101-7.659,15.13-9.004c1.429-0.319,2.877-0.454,4.335-0.518
		c1.304-0.057,1.309-0.056,1.702-1.247c3.24-9.816,7.573-19.125,12.965-27.939c0.895-1.463,1.841-2.895,2.77-4.337
		c0.205-0.318,0.38-0.668,0.832-0.965c1.556,3.293,3.626,6.134,6.536,8.293c-0.478,0.158-0.744,0.57-1.059,0.911
		c-6.181,6.686-10.626,14.395-13.395,23.055c-3.448,10.782-7.049,21.503-11.821,31.79c-1.916,4.129-4.02,8.156-6.753,11.814
		C86.464,309.996,86.03,310.877,85.114,311.281z"/>
	<path fill="#8A9998" d="M125.803,170.589c-0.019-0.012-0.041-0.026-0.064-0.04c0.025-0.038,0.05-0.076,0.075-0.114
		c0.022,0.027,0.063,0.055,0.061,0.081C125.873,170.542,125.829,170.565,125.803,170.589z"/>
	<path fill="#0D0C0B" d="M73.673,43.675c1.407,0.45,2.521,1.17,3.608,1.932c3.902,2.738,7.125,6.169,10.014,9.929
		c5.27,6.859,9.158,14.482,12.347,22.484c3.677,9.228,6.282,18.771,8.275,28.491c1.431,6.976,2.385,14.025,3.389,21.071
		c2.127,14.915,5.028,29.667,9.852,43.983c0.26,0.771,0.479,1.558,0.686,2.345c0.554,2.102,0.06,4.01-1.223,5.699
		c-1.333,1.755-3.273,2.234-5.409,1.441c-1.352-0.502-2.473-1.354-3.503-2.344c-2.535-2.436-4.416-5.354-6.12-8.392
		c-2.708-4.83-4.942-9.897-7.371-14.867c-2.825-5.78-5.514-11.623-7.741-17.667c-2.813-7.635-4.682-15.498-5.777-23.558
		c-0.792-5.829-1.203-11.685-1.549-17.553c-0.485-8.221-1.083-16.437-2.071-24.616c-0.571-4.724-1.257-9.433-2.502-14.042
		c-0.83-3.073-2.215-5.943-3.213-8.955c-0.485-1.465-1.017-2.914-1.536-4.368C73.731,44.41,73.625,44.138,73.673,43.675z
		 M75.863,46.056c-0.097-0.063-0.208-0.17-0.304-0.037c-0.08,0.111-0.021,0.236,0.079,0.329c0.672,2.307,1.531,4.549,2.435,6.77
		c1.169,2.873,1.971,5.844,2.565,8.879c0.997,5.098,1.597,10.25,2.119,15.415c0.63,6.234,1.083,12.481,1.454,18.733
		c0.381,6.425,0.833,12.839,1.765,19.215c1.252,8.566,3.429,16.874,6.643,24.914c2.915,7.293,6.423,14.312,9.831,21.378
		c1.714,3.554,3.381,7.131,5.496,10.473c1.288,2.035,2.675,3.994,4.414,5.676c0.961,0.93,1.999,1.76,3.274,2.226
		c1.79,0.654,3.313,0.148,4.365-1.43c0.361-0.541,0.582-1.139,0.78-1.755c0.435-1.355,0.066-2.632-0.343-3.903
		c-1.981-6.162-3.863-12.352-5.325-18.663c-2.442-10.535-4.218-21.186-5.632-31.903c-1.14-8.637-2.76-17.185-4.946-25.619
		c-2.555-9.862-5.848-19.457-10.549-28.525c-3.053-5.89-6.622-11.433-11.181-16.286C80.714,49.722,78.507,47.627,75.863,46.056z"/>
	<path fill="#ECECEC" d="M127.81,227.145c-0.003,0.029,0.005,0.073-0.011,0.085c-0.026,0.02-0.076,0.035-0.101,0.023
		c-0.107-0.052-0.102-0.109,0.013-0.142C127.739,227.103,127.777,227.132,127.81,227.145z"/>
	<g>
		<path fill="#FAFAFB" d="M131.847,443.139c-22.48,0-44.96,0-67.44,0c-0.419-1.755-0.575-3.552-0.732-5.337
			c-0.337-3.837-0.453-7.684-0.387-11.541c0.073-4.287,0.336-8.554,0.805-12.817c0.473-4.301,1.12-8.573,1.937-12.816
			c1.563-8.121,3.65-16.115,6.158-23.994c2.966-9.316,6.444-18.437,10.498-27.336c0.181,0.11,0.378,0.201,0.541,0.334
			c9.193,7.436,19.083,13.84,29.299,19.756c0.973,0.563,1.594,1.225,2.015,2.301c1.7,4.342,4.758,7.192,9.469,7.923
			c1.082,0.168,1.585,0.644,1.83,1.595c-0.293,0.379-0.189,0.822-0.186,1.242c0.01,1.5,0.102,2.993,0.226,4.49
			c0.29,3.505,0.821,6.969,1.489,10.416c1.293,6.68,2.966,13.282,4.099,19.995c0.649,3.844,1.166,7.706,1.369,11.597
			C133.086,433.711,132.821,438.454,131.847,443.139z"/>
		<path fill="#0F0F0F" d="M125.841,381.207c-0.246-0.952-0.749-1.427-1.83-1.595c-4.71-0.731-7.769-3.582-9.469-7.923
			c-0.421-1.076-1.042-1.738-2.015-2.301c-10.216-5.916-20.106-12.319-29.299-19.756c-0.163-0.132-0.36-0.223-0.541-0.334
			c-0.111-0.126-0.208-0.27-0.336-0.376c-3.743-3.087-7.349-6.323-10.663-9.874c-0.162-0.174-0.296-0.444-0.62-0.336
			c-0.173,0.224-0.133,0.489-0.137,0.743c-0.065,4.383-0.433,8.739-1.111,13.07c-1.588,10.133-4.721,19.752-9.626,28.77
			c-2.449,4.502-4.375,9.214-5.859,14.112c-2.655,8.76-3.962,17.733-4.208,26.871c-0.143,5.286,0.083,10.552,0.86,15.788
			c0.251,1.694,0.538,3.382,0.808,5.073c-0.343,0-0.686,0-1.03,0c-0.261-1.425-0.539-2.848-0.781-4.276
			c-0.536-3.163-0.719-6.362-0.939-9.557c0.13-0.285,0.095-0.582,0.066-0.878c-0.206-2.08-0.156-4.162-0.065-6.245
			c0.033-0.76,0.236-1.515,0.069-2.281c0.388-8.519,1.731-16.878,4.223-25.04c1.48-4.848,3.388-9.519,5.813-13.977
			c4.987-9.165,8.154-18.933,9.676-29.25c0.665-4.507,1.004-9.034,1.034-13.588c0.005-0.736-0.206-1.279-0.687-1.836
			c-3.18-3.68-6.001-7.607-8.012-12.065c-1.136-2.519-2.006-5.132-2.072-7.911c-0.095-3.995,0.198-7.964,1.258-11.846
			c2.349-8.608,6.143-16.538,11.326-23.78c3.391-4.739,7.614-8.586,12.905-11.166c3.2-1.56,6.573-2.443,10.12-2.68
			c1.049-0.07,1.053-0.065,1.384-1.056c3.396-10.167,7.974-19.775,13.656-28.859c0.886-1.417,1.808-2.813,2.756-4.19
			c0.33-0.479,0.349-0.877,0.162-1.423c-2.842-8.276-3.686-16.794-3.014-25.488c0.423-5.476,1.691-10.741,3.991-15.74
			c0.214-0.466,0.316-0.789-0.126-1.23c-5.458-5.449-9.959-11.672-14.372-17.959c-3.3-4.702-6.574-9.428-9.477-14.39
			c-4.968-8.493-8.37-17.625-10.833-27.123c-2.048-7.898-3.386-15.92-4.184-24.041c-0.6-6.113-0.803-12.236-0.848-18.374
			c-0.039-5.279-0.477-10.537-1.073-15.783c-0.591-5.202-1.386-10.365-2.645-15.45c-0.763-3.082-1.697-6.106-3.056-8.986
			c-0.606-1.283-1.298-2.513-2.16-3.643c-1.005-1.316-2.224-2.339-3.761-3.027c-2.544-1.139-5.015-2.428-7.265-4.096
			c-1.002-0.742-1.962-1.538-2.62-2.624c-0.613-1.011-0.602-1.409,0.137-2.319c1.806-2.226,4.258-3.101,7.018-3.226
			c2.609-0.118,5.101,0.507,7.532,1.397c3.523,1.29,6.764,3.122,9.861,5.212c14.691,9.915,25.993,22.774,33.567,38.841
			c3.374,7.157,5.911,14.604,7.455,22.376c0.258,1.3,0.472,2.608,0.735,4.072c0.548-0.914,0.455-1.825,0.576-2.659
			c1.067-7.352,2.82-14.545,4.853-21.68c1.607-5.642,2.472-11.397,2.186-17.279c-0.234-4.824-1.008-9.55-2.895-14.037
			c-0.432-1.027-0.954-2.011-1.54-2.962c-2.229-3.617-4.256-7.341-5.732-11.337c-0.67-1.813-1.215-3.662-1.15-5.633
			c0.029-0.883,0.258-1.687,0.801-2.395c0.453-0.591,1.085-0.81,1.788-0.893c1.368-0.067,2.736-0.061,4.103,0.013
			c3.849,0.698,6.828,2.852,9.413,5.654c2.547,2.76,4.549,5.902,6.355,9.176c3.422,6.202,6.146,12.724,8.693,19.318
			c3.194,8.267,6.326,16.559,9.437,24.859c1.801,4.805,2.742,9.806,3.205,14.91c0.56,6.173,0.45,12.343-0.082,18.504
			c-0.665,7.697-1.957,15.301-3.653,22.836c-2.268,10.08-5.183,19.973-8.674,29.697c-0.1,0.278-0.266,0.541-0.223,0.932
			c0.717,0.168,1.454,0.31,2.173,0.514c1.997,0.568,3.818,1.516,5.528,2.674c0.524,0.355,0.937,0.372,1.519,0.101
			c2.187-1.016,4.481-1.663,6.891-1.941c3.5-0.404,6.831,0.156,10.022,1.591c0.67,0.301,1.234,0.369,1.932,0.056
			c1.177-0.527,2.434-0.794,3.738-0.839c2.404-0.083,4.446,0.758,6.195,2.364c1.246,1.145,2.197,2.515,2.95,4.023
			c0.239,0.478,0.481,0.797,1.111,0.883c3.179,0.434,5.809,1.956,8.011,4.258c1.831,1.914,3.157,4.156,4.218,6.564
			c0.312,0.707,0.657,1.391,1.052,2.056c1.289,2.165,2.034,4.519,2.37,7.086c1.009,0.064,2.028,0.055,3.023,0.205
			c3.711,0.561,6.574,2.557,8.9,5.413c1.197,1.47,2.19,3.076,2.97,4.798c0.287,0.635,0.646,0.547,1.116,0.381
			c0.169,0.097,0.342,0.19,0.414,0.391c-0.891,0.501-0.896,0.503-0.548,1.4c1.356,3.495,2.187,7.089,2.049,10.867
			c-0.004,0.122,0.034,0.245,0.066,0.461c2.434-0.045,4.803-0.517,7.185-0.866c-0.002,0.162-0.003,0.324-0.005,0.487
			c-2.03,0.55-4.105,0.845-6.189,1.083c-1.123,0.128-1.133,0.121-1.342,1.229c-0.668,3.54-2.228,6.635-4.606,9.329
			c-0.254,0.288-0.506,0.576-0.819,0.932c1.668,1.135,3.47,1.896,5.275,2.648c1.821,0.759,3.725,1.262,5.62,1.791
			c0.002,0.159,0.005,0.319,0.007,0.478c-3.698-0.644-7.172-1.935-10.499-3.646c-1.388-0.714-1.001-0.67-2.076,0.224
			c-2.121,1.765-4.43,3.224-6.975,4.288c-0.693,0.29-1.235,0.704-1.727,1.269c-4.557,5.232-9.634,9.869-15.576,13.503
			c-5.74,3.511-11.912,5.811-18.627,6.503c-6.991,0.72-13.736-0.362-20.267-2.92c-0.441-0.173-0.95-0.765-1.479-0.089
			c0.116-0.207-0.062-0.24-0.182-0.307c0.054-0.353-0.231-0.406-0.454-0.507c-2.813-1.284-5.508-2.778-8.003-4.609
			c-0.505-0.371-0.816-0.179-1.228,0.114c-3.898,2.766-7.531,5.814-10.435,9.655c-0.175-0.026-0.35-0.053-0.525-0.079
			c0.379-0.724,0.891-1.357,1.388-1.999c2.379-3.072,5.288-5.59,8.315-7.987c0.291-0.23,0.664-0.39,0.838-0.857
			c-0.592-0.527-1.278-0.991-1.771-1.609c-0.901-1.131-2.084-1.533-3.44-1.638c-0.043-0.003-0.085-0.008-0.127-0.016
			c-4.577-0.803-9.03-1.947-12.911-4.674c-2.91-2.16-4.98-5-6.536-8.293c-0.452,0.297-0.627,0.647-0.832,0.965
			c-0.929,1.442-1.875,2.874-2.77,4.337c-5.392,8.815-9.725,18.124-12.965,27.939c-0.393,1.191-0.398,1.19-1.702,1.247
			c-1.458,0.064-2.906,0.2-4.335,0.518c-6.029,1.345-10.935,4.578-15.13,9.004c-3.575,3.772-6.255,8.155-8.618,12.748
			c-3.236,6.288-5.9,12.786-6.706,19.876c-0.382,3.359-0.561,6.763,0.402,10.089c0.756,2.612,1.923,5.044,3.314,7.371
			c3.354,5.611,7.686,10.414,12.425,14.858c10.861,10.183,23.198,18.316,35.997,25.798c0.231,0.135,0.468,0.408,0.841,0.123
			c-1.448-9.216,1.512-16.902,8.353-23.288c-0.49-0.297-0.955-0.588-1.428-0.864c-4.705-2.747-9.312-5.647-13.746-8.816
			c-5.911-4.225-11.524-8.794-16.326-14.287c-2.839-3.247-5.311-6.739-6.975-10.744c-1.705-4.103-2.385-8.315-1.13-12.687
			c0.442-1.539,1.121-2.966,2.113-4.232c0.246-0.314,0.539-0.639,0.963-0.342c0.447,0.314,0.194,0.676-0.049,0.994
			c-0.576,0.753-1.08,1.554-1.423,2.437c-2.006,5.164-1.197,10.082,1.337,14.84c0.029,0.492,0.301,0.888,0.526,1.299
			c1.028,1.885,2.223,3.661,3.541,5.355c3.123,4.012,6.764,7.513,10.655,10.764c7.061,5.898,14.789,10.815,22.711,15.446
			c0.293,0.171,0.506,0.255,0.806,0.086c0.88-0.495,1.882-0.54,2.838-0.755c1.056,0.166,2.036,0.563,3.096,1.134
			c-0.094-1.081-0.202-2.013-0.253-2.947c-0.26-4.705,0.244-9.342,1.334-13.915c1.383-5.804,2.563-11.641,3.145-17.588
			c0.34-3.466,0.491-6.934,0.107-10.405c-0.232-2.096-0.628-4.163-1.552-6.08c-0.721-1.495-1.639-2.828-3.323-3.395
			c-0.121-0.041-0.243-0.09-0.349-0.16c-0.203-0.133-0.258-0.345-0.207-0.563c0.053-0.223,0.212-0.36,0.45-0.397
			c0.363-0.056,0.679,0.099,0.986,0.239c1.041,0.475,1.844,1.237,2.502,2.161c1.012,1.42,1.61,3.02,2.021,4.698
			c0.471,1.924,0.72,3.881,0.76,5.859c0.013,0.621,0.246,0.937,0.814,1.106c1.191,0.353,2.363,0.774,3.563,1.093
			c9.885,2.627,19.915,2.686,30.01,1.701c3.839-0.375,7.639-1.071,11.497-1.295c6.564-0.382,13.02,0.167,19.339,2.051
			c7.708,2.297,14.344,6.46,20.354,11.712c3.815,3.334,7.373,6.935,10.929,10.537c0.288,0.292,0.488,0.717,0.973,0.785
			c0.327-0.341,0.293-0.79,0.395-1.193c0.539-2.121,1.069-4.231,2.378-6.065c2.332-3.269,5.496-5.228,9.362-6.115
			c1.028-0.236,2.079-0.371,3.147-0.557c-0.06-0.585-0.449-0.892-0.737-1.242c-1.867-2.267-4.103-4.147-6.403-5.94
			c-9.236-7.198-19.207-13.213-29.707-18.37c-4.604-2.261-9.416-3.884-14.444-4.908c-4.735-0.964-9.523-1.134-14.33-1.15
			c-8.805-0.029-17.563-0.665-26.254-2.109c-3.173-0.527-6.316-1.201-9.356-2.278c-2.077-0.736-4.013-1.688-5.614-3.277
			c-1.234-1.225-2.779-2.013-4.429-2.539c-4.014-1.277-8.083-1.314-12.182-0.451c-0.276-0.265-0.487-0.554-0.338-0.968
			c0.125-0.022,0.233-0.065,0.249-0.214c3.361-0.597,6.723-0.735,10.097-0.082c3.012,0.583,5.714,1.754,7.922,3.956
			c1.084,1.081,2.471,1.689,3.873,2.228c3.333,1.28,6.807,2.029,10.318,2.6c9.799,1.593,19.676,2.06,29.591,2.102
			c8.518,0.036,16.653,1.931,24.341,5.608c11.363,5.434,22.084,11.922,31.952,19.78c2.082,1.658,4.069,3.428,5.74,5.517
			c0.479,0.599,0.746,1.438,1.331,1.863c0.582,0.423,1.458,0.419,2.177,0.679c2.086,0.753,3.695,2.137,4.954,3.935
			c0.318,0.454,0.634,0.691,1.235,0.718c6.286,0.282,11.821,2.582,16.796,6.351c0.068,0.052,0.143,0.097,0.204,0.157
			c2.37,2.324,5.329,3.691,8.262,5.104c11.284,5.434,22.988,9.79,34.91,13.582c0.905,0.288,1.769,0.645,2.547,1.193
			c2.235,1.572,3.146,3.889,2.426,6.511c-0.21,0.762-0.096,1.241,0.402,1.82c1.419,1.649,1.353,3.635,1.058,5.617
			c-0.138,0.929-0.453,1.828-0.934,2.653c-0.104-0.115-0.208-0.23-0.312-0.345c0.163-0.754,0.357-1.502,0.484-2.262
			c0.505-3.023-0.665-5.291-3.405-6.671c-0.885-0.446-1.813-0.77-2.772-1.003c-1.457-0.352-2.923-0.668-4.375-1.039
			c-4.151-1.06-8.262-2.253-12.239-3.868c0.124-0.113,0.249-0.227,0.373-0.34c0.329,0.093,0.661,0.176,0.987,0.282
			c4.078,1.32,8.206,2.449,12.408,3.3c2.262,0.458,4.585,0.688,6.643,1.873c0.447,0.258,0.587-0.015,0.685-0.413
			c0.387-1.57,0.081-2.974-0.96-4.212c-0.857-1.019-1.978-1.611-3.223-2.02c-3.132-1.028-6.275-2.024-9.384-3.117
			c-10.393-3.656-20.602-7.749-30.379-12.865c-0.764-0.4-1.467-0.866-2.11-1.448c-1.467-1.325-3.055-2.496-4.746-3.522
			c-6.105-3.706-12.649-5.123-19.723-3.781c-1.691,0.321-3.272,1.004-4.914,1.468c-3.541,0.999-5.796,3.281-6.875,6.685
			c-1.625,5.125-1.03,10,2.093,14.463c2.642,3.776,5.919,6.9,9.855,9.293c7.767,4.722,16.256,6.447,25.252,5.904
			c1.715-0.103,3.38-0.571,4.912-1.399c2.304-1.245,2.911-3.027,1.794-5.377c-1.241-2.611-3.243-4.388-6.003-5.276
			c-2.424-0.78-4.895-0.798-7.373-0.346c-0.787,0.143-1.488,0.136-2.223-0.251c-1.174-0.617-2.4-1.134-3.597-1.708
			c-0.435-0.209-1.154-0.336-0.782-1.035c0.323-0.608,0.84-0.12,1.232,0.05c1.035,0.448,2.051,0.94,3.258,1.5
			c-0.291-1.196-0.802-2.044-1-3.001c-0.197-0.953-0.3-1.88,0.026-2.824c0.867,2.055,1.595,4.131,2.174,6.195
			c0.308,0.11,0.507,0.011,0.714-0.023c2.924-0.493,5.816-0.451,8.608,0.66c3.123,1.243,5.296,3.448,6.344,6.66
			c0.662,2.029,0.083,3.738-1.571,5.038c-0.85,0.668-1.804,1.147-2.848,1.436c-0.184,0.021-0.276,0.117-0.251,0.308
			c-0.213-0.005-0.438-0.058-0.637-0.008c-4.034,1.015-8.1,0.697-12.142,0.173c-5.093-0.659-9.953-2.142-14.493-4.593
			c-5.034-2.718-9.199-6.409-12.411-11.153c-0.502-0.742-0.787-1.661-1.382-2.303c-0.574-0.62-1.582-0.558-2.348-0.951
			c-2.88-1.479-4.161-3.968-4.447-7.056c-0.098-1.063-0.037-2.144,0.002-3.214c0.017-0.462-0.083-0.8-0.419-1.138
			c-4.777-4.806-9.433-9.738-14.761-13.962c-6.061-4.804-12.742-8.35-20.327-10.058c-4.793-1.08-9.647-1.437-14.558-1.256
			c-4.038,0.149-8.012,0.826-12.016,1.257c-5.936,0.639-11.88,0.88-17.847,0.487c-5.193-0.342-10.296-1.151-15.28-2.676
			c-0.645-0.197-1.256-0.531-2.03-0.581c-0.075,1.319-0.14,2.587-0.222,3.853c-0.434,6.698-1.763,13.247-3.293,19.761
			c-0.994,4.235-1.571,8.515-1.409,12.874c0.062,1.674,0.274,3.333,0.566,4.981c0.135,0.761,0.401,1.471,0.974,2.095
			c0.202-0.098,0.396-0.176,0.572-0.281c4.527-2.701,9.335-3.073,14.386-1.864c4.565,1.093,8.913,2.783,13.127,4.784
			c2.092,0.994,4.179,1.368,6.436,1.271c2.783-0.12,5.569-0.201,8.355-0.252c1.117-0.02,2.234,0.091,3.134,0.896
			c-0.185,0.066-0.37,0.133-0.555,0.199c-1.714-0.641-3.476-0.368-5.219-0.238c-2.095,0.157-4.19,0.31-6.286,0.455
			c-2.193,0.151-4.173-0.283-6.183-1.231c-4.3-2.028-8.714-3.807-13.382-4.849c-3.675-0.821-7.307-0.893-10.846,0.63
			c-2.578,1.11-4.926,2.605-7.093,4.374c-1.729,1.412-2.983,3.202-3.703,5.319c-1.443,4.243-2.004,8.619-1.439,13.064
			c1.24,9.751,8.172,17.185,17.818,19.258c2.095,0.45,4.172,0.956,6.205,1.642c6.103,2.058,11.91,4.806,17.725,7.544
			c4.294,2.021,8.341,4.379,11.754,7.744c1.386,1.367,3.072,2.34,4.932,2.943c3.093,1.003,6.021,0.661,8.658-1.309
			c1.799-1.345,2.17-2.936,1.281-4.992c-0.535-1.237-1.348-2.287-2.252-3.27c-1.865-2.029-3.975-3.783-6.163-5.449
			c-2.424-1.846-5.009-3.452-7.546-5.131c0.059-0.181,0.204-0.27,0.365-0.344c1.544,0.747,2.989,1.668,4.441,2.574
			c3.021,1.885,5.977,3.866,8.56,6.34c1.618,1.55,3.115,3.222,3.836,5.395c0.248,0.748,0.705,0.392,1.104,0.455l-0.029-0.026
			c-0.406,0.246-0.842,0.368-0.77,1.072c0.195,1.897-0.754,3.309-2.229,4.355c-3.229,2.289-6.71,2.597-10.359,1.14
			c-1.932-0.771-3.636-1.919-5.125-3.363c-2.484-2.409-5.305-4.317-8.401-5.84c-6.333-3.115-12.7-6.153-19.372-8.493
			c-2.101-0.737-4.233-1.357-6.425-1.762c-2.327-0.43-4.505-1.309-6.656-2.265c-0.105-0.029-0.268-0.115-0.304-0.078
			c-0.128,0.132-0.063,0.295,0.025,0.439c1.169,4.024,2.253,8.068,3.045,12.189c1.215,6.322,1.926,12.693,2.098,19.128
			c0.206,7.686-0.288,15.32-1.63,22.896c-0.015,0.083-0.002,0.17-0.003,0.255c-0.343,0-0.686,0-1.03,0
			c-0.011-0.515,0.058-1.02,0.14-1.53c0.772-4.784,1.26-9.598,1.405-14.442c0.196-6.564-0.099-13.104-0.997-19.615
			c-0.915-6.633-2.355-13.142-4.439-19.507c-0.208-0.634-0.521-1.12-1.091-1.509c-1.961-1.337-3.638-2.984-5.095-4.858
			C126.252,381.485,126.148,381.221,125.841,381.207z M238.071,341.748c0.068,0.09,0.168,0.167,0.252,0.071
			c0.045-0.052-0.002-0.186-0.008-0.282c-0.103-0.414-0.218-0.826-0.306-1.244c-0.779-3.699-0.609-7.33,0.9-10.83
			c1.132-2.625,2.981-4.614,5.666-5.658c1.748-0.679,3.517-1.329,5.354-1.764c1.78-0.422,3.589-0.633,5.555-0.793
			c-1.273-1.932-2.908-3.181-4.976-3.754c-2.146-0.594-4.331-0.415-6.453,0.207c-5.052,1.481-8.529,4.556-9.845,9.817
			c-0.354,1.415-0.693,2.831-0.852,4.277c-0.213,1.925-0.238,3.857,0.426,5.719C234.53,339.608,235.854,341.137,238.071,341.748z
			 M154.244,248.948c-0.092-0.095-0.184-0.19-0.276-0.285c4.694-5.833,10.096-10.923,16.134-15.293
			c-0.109-0.32-0.334-0.344-0.531-0.418c-1.935-0.724-3.746-1.684-5.412-2.907c-0.781-0.573-0.73-0.509-1.303,0.176
			c-2.261,2.702-4.786,5.142-7.458,7.431c-0.228,0.195-0.449,0.399-0.688,0.579c-0.261,0.198-0.548,0.267-0.805-0.003
			c-0.265-0.279-0.168-0.551,0.073-0.785c0.215-0.209,0.45-0.396,0.672-0.597c1.081-0.976,2.191-1.923,3.236-2.936
			c2.526-2.449,4.92-5.016,6.796-8.019c0.044-0.096,0.15-0.234,0.119-0.28c-0.104-0.156-0.258-0.085-0.393-0.01
			c-0.369,0.105-0.74,0.204-1.106,0.317c-4.129,1.282-8.136,2.893-12.148,4.491c-0.002-0.178-0.004-0.356-0.006-0.534
			c0.227-0.116,0.45-0.242,0.682-0.347c4.252-1.912,8.604-3.565,13.027-5.034c0.399-0.133,0.845-0.178,1.08-0.609
			c1.125-2.067,2.047-4.205,2.416-6.666c-2.185,0.072-4.252,0.398-6.318,0.7c-4.443,0.65-8.822,1.625-13.19,2.652
			c-0.003-0.157-0.006-0.315-0.009-0.472c0.242-0.083,0.481-0.181,0.728-0.247c5.876-1.548,11.81-2.807,17.85-3.53
			c1.195-0.143,1.194-0.178,1.21-1.412c0.044-3.514-1.079-6.645-3.163-9.438c-2.429-3.255-5.575-5.646-9.155-7.506
			c-0.548-0.285-1.096-0.446-1.71-0.454c-1.284-0.016-2.568-0.106-3.851-0.078c-1.506,0.032-2.658-0.497-3.428-1.82
			c-0.191-0.328-0.38-0.676-0.73-0.88c-0.17-0.64-0.67-1.082-0.977-1.64c-0.695-1.262-0.332-2.585,0.912-3.317
			c0.147-0.087,0.303-0.162,0.461-0.227c4.422-1.821,9.008-2.705,13.796-2.366c4.87,0.344,7.371,3.562,8.414,7.876
			c0.436,1.802-0.586,2.891-2.451,2.864c-1.67-0.024-3.338-0.124-5.007-0.165c-1.048-0.026-2.096-0.005-3.156-0.005
			c0.035,0.305,0.269,0.354,0.435,0.458c3.53,2.223,6.553,4.955,8.659,8.611c0.037,0.064,0.133,0.095,0.201,0.141
			c-0.016,0.271,0.115,0.494,0.226,0.727c1.125,2.363,1.681,4.847,1.598,7.472c-0.029,0.929-0.002,0.936,1.002,0.926
			c2.273-0.024,4.545-0.061,6.818-0.077c0.48-0.003,1.1-0.231,1.262,0.512c0.097,0.444-0.291,0.594-1.295,0.581
			c-2.316-0.03-4.632-0.051-6.948-0.065c-0.955-0.006-0.96,0.006-1.187,1.016c-0.348,1.553-0.858,3.051-1.506,4.503
			c-0.133,0.297-0.352,0.57-0.282,0.942c0.374,0.122,0.69-0.06,1-0.152c2.423-0.723,4.872-1.341,7.349-1.846
			c0.419-0.086,0.843-0.16,1.269-0.203c0.273-0.028,0.51,0.077,0.572,0.392c0.069,0.354-0.087,0.587-0.421,0.682
			c-0.204,0.058-0.425,0.058-0.635,0.097c-3.116,0.587-6.205,1.288-9.248,2.185c-0.468,0.138-0.853,0.283-1.13,0.741
			c-0.554,0.916-1.153,1.808-1.786,2.672c-0.331,0.452-0.286,0.709,0.165,1.029c1.759,1.248,3.644,2.239,5.67,2.982
			c0.79,0.29,1.406,0.215,2.125-0.265c2.606-1.74,5.355-3.23,8.284-4.366c0.319-0.124,0.639-0.248,0.967-0.343
			c0.347-0.101,0.599,0.076,0.717,0.383c0.108,0.283-0.063,0.51-0.306,0.63c-0.267,0.132-0.562,0.205-0.842,0.311
			c-2.89,1.085-5.622,2.477-8.215,4.115c0.09,0.27,0.264,0.311,0.418,0.33c1.489,0.183,2.975,0.355,4.485,0.241
			c3.697-0.28,7.134-1.396,10.351-3.196c0.655-0.367,1.051-0.34,1.636,0.161c2.503,2.146,5.425,2.854,8.639,2.186
			c3.504-0.728,5.995-2.864,7.69-5.932c2.512-4.547,2.601-9.227,0.578-13.983c-0.238-0.56-0.505-0.842-1.159-0.564
			c-0.427,0.181-0.908,0.252-1.372,0.325c-0.43,0.067-1.027,0.367-1.17-0.318c-0.143-0.687,0.49-0.657,0.94-0.751
			c3.861-0.805,7.666-1.819,11.397-3.101c0.425-0.146,0.939-0.157,1.26-0.616c-0.65-1.445-1.446-2.811-2.366-4.105
			c-0.699-0.982-1.496-1.878-2.38-2.698c-4.261-3.953-10.108-4.479-16.204-1.143c0.094,0.434,0.393,0.756,0.62,1.116
			c1.305,2.075,2.428,4.239,3.229,6.561c2.526,7.318,0.808,14.229-4.781,19.222c-0.309,0.276-0.588,0.713-1.089,0.483
			c-0.373-0.171-0.278-0.584-0.309-0.917c0.435-0.111,0.735-0.414,1.041-0.715c0.917-0.901,1.75-1.879,2.459-2.944
			c2.646-3.976,3.545-8.248,2.063-12.893c0.056-0.442-0.114-0.84-0.239-1.249c-0.517-1.684-1.221-3.288-2.068-4.831
			c-2.585-4.712-6.057-8.702-10.008-12.301c-0.913-0.832-0.931-0.975-0.148-1.97c0.427-0.543,0.933-0.998,1.52-1.369
			c1.265-0.798,2.659-1.143,4.134-1.239c1.808-0.117,3.583,0.148,5.361,0.41c0.102,0.079,0.213,0.125,0.293-0.01
			c0.016-0.027-0.074-0.118-0.115-0.179c-0.577-1.542-1.478-2.896-2.476-4.186c-1.92-2.482-4.313-4.297-7.419-5.007
			c-3.342-0.764-6.557-0.236-9.673,1.091c-0.314,0.134-0.62,0.302-0.946,0.39c-0.215,0.058-0.401-0.096-0.519-0.3
			c-0.128-0.222-0.077-0.442,0.095-0.578c0.232-0.183,0.502-0.324,0.771-0.451c1.166-0.554,2.381-0.98,3.649-1.214
			c1.165-0.215,2.342-0.36,3.662-0.558c-0.894-1.74-1.931-3.223-3.442-4.342c-1.745-1.293-3.678-1.768-5.827-1.369
			c-0.977,0.181-1.925,0.446-2.81,0.887c-0.55,0.274-1.01,0.271-1.568-0.014c-3.182-1.623-6.569-2.179-10.108-1.807
			c-2.269,0.239-4.435,0.852-6.677,1.952c0.703,0.573,1.299,1.042,1.877,1.533c0.49,0.416,0.976,0.839,1.43,1.293
			c0.192,0.192,0.199,0.472-0.008,0.7c-0.207,0.229-0.459,0.224-0.692,0.067c-0.248-0.167-0.471-0.371-0.703-0.561
			c-0.763-0.625-1.504-1.28-2.292-1.871c-2.449-1.834-4.999-3.48-8.043-4.173c-3.354-0.764-6.081,0.251-8.23,2.898
			c-1.037,1.278-1.781,2.727-2.385,4.248c-1.131,2.851-1.737,5.827-2.075,8.865c-0.033,0.297-0.052,0.6-0.134,0.884
			c-0.06,0.21-0.251,0.358-0.486,0.353c-0.299-0.006-0.483-0.199-0.513-0.479c-0.026-0.252,0.018-0.511,0.036-0.766
			c0.128-1.759,0.397-3.5,0.863-5.196c0.323-1.173,0.443-2.304,0.238-3.517c-0.267-1.577-0.381-3.181-0.568-4.843
			c-0.463,0.276-0.544,0.678-0.755,0.982c-1.67,2.412-4.207,2.716-6.391,0.751c-0.871-0.784-1.541-1.723-2.097-2.749
			c-1.113-2.054-1.799-4.261-2.296-6.53c-1.063-4.849-1.275-9.773-1.234-14.715c0.056-6.824-0.12-13.64-0.492-20.455
			c-0.549-10.079-1.743-20.08-3.496-30.013c-2.035-11.528-6.192-22.277-12.142-32.338C97.687,54.87,89.554,46.014,79.813,38.608
			c-4.142-3.149-8.445-6.033-13.264-8.064c-3.003-1.266-6.103-2.02-9.39-1.567c-1.885,0.26-3.513,1.04-4.796,2.496
			c-0.453,0.514-0.45,0.963-0.047,1.482c0.531,0.683,1.151,1.27,1.834,1.794c2.087,1.602,4.356,2.919,6.772,3.925
			c2.712,1.129,4.62,3.036,6.051,5.526c1.986,3.456,3.172,7.21,4.137,11.046c1.258,5,2.05,10.08,2.645,15.197
			c0.634,5.459,1.118,10.931,1.144,16.425c0.028,5.883,0.226,11.751,0.775,17.609c0.775,8.256,2.112,16.415,4.195,24.442
			c2.939,11.326,7.236,22.06,13.78,31.836c3.986,5.954,7.949,11.923,12.352,17.579c3.37,4.33,6.667,8.742,11.149,12.047
			c0.329,0.243,0.437,0.545,0.188,0.88c-0.229,0.309-0.537,0.199-0.804,0.03c-0.56-0.357-1.111-0.729-1.71-1.124
			c-0.88,1.673-1.486,3.319-2.014,4.991c-2.285,7.235-2.729,14.643-1.973,22.146c0.087,0.86-0.092,1.809,0.491,2.589
			c-0.009,0.471-0.09,0.953-0.017,1.41c0.54,3.389,1.287,6.723,2.504,9.947c2.642,6.999,7.578,11.349,14.852,13.085
			c2.085,0.498,4.18,0.923,6.297,1.245c0.488,0.074,0.887,0.224,1.238,0.587c3.389,3.5,7.469,5.99,11.834,8.054
			c0.413,0.195,0.806,0.52,1.322,0.396c0.102,0.002,0.205,0.004,0.307,0.006c0.002,0.4,0.325,0.442,0.601,0.554
			c6.428,2.61,13.099,3.656,20,2.945c6.901-0.711,13.192-3.183,19.012-6.91c0.268-0.172,0.59-0.298,0.84-0.738
			c-0.383,0-0.659-0.008-0.935,0.001c-0.9,0.03-1.809,0.113-2.691-0.076c-0.53-0.114-0.986-0.045-1.496,0.083
			c-1.922,0.484-3.883,0.695-5.862,0.507c-2.36-0.224-3.353-1.475-3.044-3.793c0.175-1.316,0.406-2.624,0.593-3.939
			c0.117-0.823,0.001-0.945-0.85-0.912c-1.04,0.041-2.011,0.383-2.979,0.73c-0.112-0.101-0.223-0.203-0.335-0.304
			c1.098-0.797,2.315-1.275,3.675-1.358c0.442-0.027,0.838-0.028,0.926-0.629c0.314-2.152,0.662-4.299,1.011-6.537
			c-2.006,0.04-3.929-0.052-5.805-0.512c-0.648-0.159-1.126-0.022-1.655,0.344c-2.857,1.975-5.572,4.125-8.164,6.436
			C159.562,243.141,156.894,246.035,154.244,248.948z M127.62,38.76c-0.092,0.04-0.183,0.08-0.275,0.12
			c0.344,1.091,0.671,2.187,1.034,3.271c3.018,9.029,4.496,18.286,4.265,27.821c-0.19,7.829-1.173,15.56-2.753,23.213
			c-1.309,6.34-2.51,12.696-3.393,19.108c-1.002,7.265-1.786,14.553-2.192,21.881c-0.485,8.752-0.545,17.49,0.613,26.199
			c0.498,3.744,1.242,7.439,2.519,11.008c0.355,0.993,0.861,1.241,1.864,0.94c0.683-0.205,1.212-0.63,1.636-1.191
			c0.551-0.729,0.912-1.553,1.141-2.429c0.35-1.336,0.502-2.692,0.384-4.077c-0.054-0.64-0.069-1.285-0.064-1.927
			c0.002-0.27,0.175-0.486,0.473-0.518c0.302-0.032,0.501,0.143,0.552,0.419c0.086,0.463,0.179,0.934,0.178,1.402
			c-0.003,1.977,0.159,3.944,0.339,5.908c0.135,1.471,0.163,2.961,0.547,4.678c0.678-1.527,1.237-2.855,2.189-3.889
			c1.089-1.183,1.617-2.591,2.081-4.059c0.284-0.899,0.561-1.8,0.819-2.706c1.61-5.654,2.723-11.416,3.718-17.203
			c1.105-6.423,1.962-12.881,2.682-19.358c0.531-4.774,0.95-9.56,1.215-14.356c0.211-3.813,0.317-7.633,0.03-11.446
			c-0.532-7.057-1.302-14.088-2.519-21.063c-1.313-7.526-3.044-14.946-5.663-22.137c-2.093-5.745-4.685-11.235-8.401-16.136
			C129.71,41.006,128.731,39.823,127.62,38.76z M125.477,170.202c0.085-0.041,0.171-0.081,0.256-0.122
			c-0.036-0.248-0.041-0.506-0.111-0.744c-1.444-4.926-2.083-9.987-2.451-15.082c-0.589-8.15-0.314-16.296,0.299-24.433
			c0.393-5.218,0.959-10.42,1.66-15.607c0.707-5.227,1.441-10.453,2.537-15.612c1.847-8.694,3.389-17.422,3.801-26.324
			c0.317-6.851-0.16-13.629-1.568-20.342c-1.059-5.048-2.726-9.917-4.332-14.804c-0.222-0.675-0.531-1.332-0.62-2.218
			c1.541,1.14,2.82,2.333,4.016,3.619c3.361,3.616,5.93,7.758,8.069,12.185c3.321,6.875,5.497,14.131,7.172,21.552
			c1.426,6.322,2.451,12.712,3.146,19.155c0.709,6.568,1.404,13.127,1.032,19.763c-0.329,5.871-0.798,11.727-1.443,17.568
			c-0.659,5.967-1.482,11.914-2.493,17.833c-1.14,6.68-2.449,13.324-4.441,19.813c-0.11,0.358-0.299,0.701-0.17,1.196
			c1.197-0.368,2.335-0.852,3.574-0.912c0.234-0.011,0.337-0.252,0.416-0.448c0.145-0.357,0.265-0.724,0.396-1.088
			c4.695-13.105,8.383-26.48,10.692-40.218c1.003-5.969,1.706-11.976,1.893-18.03c0.117-3.775,0.104-7.549-0.223-11.32
			c-0.459-5.279-1.346-10.47-3.228-15.439c-3.464-9.141-6.79-18.335-10.437-27.406c-2.497-6.21-5.118-12.365-8.499-18.161
			c-1.843-3.16-3.899-6.166-6.585-8.687c-3.041-2.853-6.526-4.543-10.82-4.094c-1.399,0.146-1.88,0.579-2.078,1.977
			c-0.154,1.085,0.082,2.138,0.348,3.177c0.936,3.648,2.679,6.947,4.442,10.239c0.992,1.853,2.239,3.559,3.126,5.472
			c2.54,5.48,3.449,11.299,3.444,17.273c-0.005,5.653-0.953,11.178-2.548,16.601c-2.484,8.448-4.256,17.043-5.247,25.797
			c-0.16,1.414-0.124,2.805,0.095,4.221c0.611,3.942,1.048,7.907,1.398,11.881c0.376,4.273,0.674,8.552,0.859,12.839
			c0.239,5.53,0.41,11.061,0.359,16.596c-0.041,4.424,0.053,8.838,0.844,13.208c0.445,2.456,1.067,4.859,2.14,7.123
			C124.538,168.924,124.884,169.654,125.477,170.202z M124.223,378.465c-0.021-0.479-0.286-0.832-0.459-1.214
			c-1.053-2.322-1.686-4.751-1.991-7.28c-0.485-4.024,0.04-7.949,1.046-11.84c0.897-3.467,2.807-6.215,5.744-8.255
			c0.663-0.461,1.324-0.926,1.969-1.377c-0.141-0.634-0.488-1.079-0.799-1.534c-1.7-2.489-3.971-2.967-6.565-1.389
			c-1.297,0.789-2.364,1.839-3.339,2.99c-2.197,2.593-3.683,5.574-4.669,8.801c-1.519,4.974-1.412,9.903,0.713,14.696
			c1.272,2.869,3.373,4.93,6.36,6.008C122.866,378.301,123.5,378.591,124.223,378.465z M188.936,230.907
			c-3.032,1.557-6.014,2.693-9.228,3.113c-0.475,0.062-0.478,0.392-0.533,0.735c-0.5,3.126-1.008,6.25-1.509,9.375
			c-0.196,1.225-0.427,2.447-0.551,3.68c-0.113,1.113,0.323,1.659,1.417,1.946c0.41,0.108,0.838,0.174,1.262,0.2
			c1.462,0.09,2.897-0.137,4.335-0.376c1.003-0.167,1.562-0.685,1.869-1.665c0.869-2.778,1.641-5.58,2.184-8.438
			C188.709,236.707,189.131,233.921,188.936,230.907z M207.629,211.313c1.137,2.451,1.748,4.873,1.731,7.44
			c-0.006,0.938,0.024,0.923,1.006,1.054c2.681,0.359,5.376,0.346,8.071,0.322c1.026-0.009,1.071-0.04,1.089-1.093
			c0.063-3.609-0.769-7.037-2.132-10.355c-0.154-0.375-0.325-0.573-0.757-0.401C213.743,209.433,210.776,210.376,207.629,211.313z
			 M186.691,249.346c1.724,0.217,3.239-0.076,4.768-0.259c1.232-0.148,1.919-0.744,2.211-1.953c0.321-1.329,0.789-2.621,1.137-3.944
			c0.74-2.817,1.329-5.666,1.621-8.568c0.1-0.993,0.072-1.015-0.868-1.079c-1.342-0.091-2.608-0.452-3.819-1.019
			c-0.528-0.247-1.045-0.516-1.666-0.824C190.047,237.833,188.506,243.551,186.691,249.346z M219.361,220.882
			c-3.279,0.333-6.391,0.259-9.498-0.039c-0.535-0.051-0.665,0.235-0.722,0.66c-0.218,1.627-0.709,3.173-1.461,4.625
			c-0.255,0.491-0.136,0.763,0.24,1.088c1.687,1.457,3.442,2.819,5.315,4.03c0.429,0.277,0.705,0.301,1.085-0.104
			C216.998,228.292,218.775,225.006,219.361,220.882z M204.619,230.547c-0.135,0.024-0.234,0.012-0.287,0.056
			c-1.809,1.518-3.842,2.562-6.202,2.878c-0.536,0.072-0.574,0.39-0.606,0.796c-0.315,3.989-1.263,7.851-2.353,11.685
			c-0.082,0.289-0.312,0.579-0.146,0.954c0.158-0.091,0.279-0.139,0.374-0.218c3.23-2.7,6.159-5.701,8.908-8.885
			c0.197-0.228,0.37-0.45,0.395-0.779C204.864,234.87,204.999,232.709,204.619,230.547z M156.224,196.329
			c-0.107-0.278-0.174-0.474-0.256-0.664c-0.888-2.065-1.433-4.207-1.354-6.469c0.022-0.63-0.311-0.594-0.716-0.521
			c-2.275,0.411-4.507,0.981-6.606,1.973c-1.012,0.478-1.187,1.118-0.591,2.073c0.565,0.906,1.193,1.772,1.787,2.66
			c0.414,0.618,1.005,0.934,1.729,0.941C152.177,196.342,154.137,196.329,156.224,196.329z M213.138,232.266
			c-2.298-1.379-4.327-2.855-6.238-4.463c-0.99,0.792-1.374,1.701-1.151,2.941c0.312,1.73,0.238,3.49,0.133,5.243
			c-0.016,0.266-0.218,0.579,0.158,0.855C208.577,235.732,210.895,234.256,213.138,232.266z M191.582,187.55
			c-1.586,0.198-2.852,0.722-3.867,1.795c-0.245,0.259-0.485,0.516-0.105,0.853c1.472,1.308,2.847,2.713,4.163,4.177
			c0.156,0.174,0.341,0.277,0.563,0.176c0.348-0.158,0.175-0.409,0.091-0.645C191.716,191.912,191.374,189.862,191.582,187.55z
			 M162.991,188.829c1.367,2.391,2.377,4.647,2.635,7.159c0.076,0.737,0.457,0.892,1.103,0.869c0.886-0.032,1.359-0.293,1.422-0.96
			c0.035-0.375-0.008-0.778-0.111-1.142c-0.515-1.81-1.513-3.351-2.78-4.715C164.734,189.473,164.056,189.111,162.991,188.829z
			 M201.426,196.261c-2.763-1.186-6.249-1.414-8.444-0.593c0.525,0.691,1.057,1.338,1.526,2.029c0.379,0.557,0.749,0.66,1.381,0.354
			C197.574,197.232,199.351,196.65,201.426,196.261z M199.612,191.899c0.011-0.904-0.278-1.68-1.032-2.214
			c-0.782-0.554-1.635-0.244-1.887,0.682c-0.225,0.825-0.067,1.605,0.419,2.306c0.441,0.636,1.095,0.933,1.61,0.763
			C199.302,193.244,199.596,192.735,199.612,191.899z M162.736,192.308c-0.039-0.521-0.229-1.022-0.813-1.261
			c-0.256-0.105-0.497-0.028-0.68,0.194c-0.294,0.357-0.276,1.093,0.063,1.551c0.205,0.277,0.462,0.546,0.843,0.456
			C162.581,193.145,162.723,192.788,162.736,192.308z M125.803,170.589c0.026-0.025,0.07-0.047,0.072-0.073
			c0.002-0.025-0.039-0.054-0.061-0.081c-0.025,0.038-0.05,0.076-0.075,0.114C125.761,170.564,125.784,170.578,125.803,170.589z"/>
		<path fill="#8D9B9B" d="M125.841,381.207c0.307,0.014,0.411,0.277,0.562,0.472c1.457,1.874,3.134,3.52,5.095,4.858
			c0.569,0.388,0.883,0.874,1.091,1.509c2.084,6.366,3.524,12.874,4.439,19.507c0.898,6.512,1.193,13.051,0.997,19.615
			c-0.145,4.845-0.633,9.658-1.405,14.442c-0.082,0.51-0.151,1.014-0.14,1.53c-1.544,0-3.089,0-4.633,0
			c0.974-4.686,1.239-9.428,0.991-14.192c-0.203-3.891-0.72-7.752-1.369-11.597c-1.133-6.714-2.807-13.315-4.099-19.995
			c-0.667-3.447-1.198-6.912-1.489-10.416c-0.124-1.497-0.215-2.99-0.226-4.49C125.652,382.029,125.548,381.586,125.841,381.207z"/>
		<path fill="#0F0F0F" d="M322.403,365.89c-0.007,0.128-0.053,0.27-0.016,0.383c0.539,1.633,0.01,3.048-0.94,4.339
			c-2.193,2.98-5.184,4.559-8.847,4.802c-3.293,0.219-6.484-0.433-9.604-1.431c-6.002-1.919-11.489-4.877-16.714-8.356
			c0.112-0.107,0.224-0.213,0.336-0.32c1.494,0.831,2.98,1.677,4.484,2.49c4.68,2.531,9.513,4.694,14.721,5.9
			c2.723,0.631,5.483,1.031,8.265,0.41c2.924-0.653,5.282-2.197,6.871-4.773c0.977-1.585,0.74-2.875-0.643-4.122
			c-0.835-0.753-1.815-1.279-2.839-1.727c-2.126-0.93-4.352-1.546-6.62-1.987c-4.412-0.858-8.491-2.557-12.382-4.76
			c0.096-0.117,0.193-0.235,0.289-0.352c1.309,0.578,2.612,1.17,3.928,1.73c2.682,1.14,5.437,2.032,8.324,2.509
			c2.707,0.447,5.351,1.145,7.818,2.389c1.27,0.64,2.466,1.385,3.215,2.662C322.105,365.849,322.223,365.921,322.403,365.89z"/>
		<path fill="#0F0F0F" d="M194.464,389.045c1.377,1.36,2.501,2.909,3.4,4.619c0.499,0.949,0.835,1.95,1.002,3.02
			c0.286,1.832-0.221,3.396-1.53,4.669c-1.047,1.019-2.24,1.834-3.722,2.113c0,0,0.029,0.026,0.029,0.026
			c-0.114-0.374,0.254-0.368,0.418-0.496c0.538-0.422,1.14-0.769,1.651-1.219c2.07-1.823,2.59-4.042,1.573-6.617
			c-0.866-2.194-2.324-3.988-3.919-5.677c-2.272-2.406-4.784-4.546-7.413-6.547c-6.355-4.835-13.155-8.979-20.091-12.911
			c-1.637-0.928-3.227-1.939-4.839-2.91c-0.167-0.101-0.251-0.264-0.194-0.427c0.072-0.206,0.249-0.156,0.415-0.079
			c1.543,0.711,3.141,1.322,4.623,2.144c7.199,3.989,14.215,8.275,20.769,13.276c2.556,1.95,5.033,3.998,7.224,6.366
			C194.062,388.611,194.263,388.828,194.464,389.045z"/>
		<path fill="#0F0F0F" d="M176.824,361.933c-0.006,0.578,0.541,0.583,0.861,0.771c3.332,1.959,6.548,4.083,9.537,6.54
			c2.193,1.804,4.231,3.764,5.917,6.064c1.381,1.884,2.462,3.909,2.913,6.236c0.418,2.155,0.106,4.164-1.068,6.029
			c-0.09-0.077-0.18-0.155-0.27-0.232c0.203-1.004,0.435-1.996,0.453-3.035c0.046-2.806-0.874-5.289-2.42-7.576
			c-1.62-2.398-3.649-4.419-5.854-6.269c-4.517-3.788-9.542-6.788-14.763-9.479c-1.369-0.706-2.687-1.499-3.987-2.322
			c0.125-0.115,0.25-0.23,0.376-0.345c0.245,0.073,0.491,0.139,0.734,0.219c2.286,0.747,4.366,1.928,6.474,3.054
			c0.344,0.184,0.654,0.608,1.144,0.328L176.824,361.933z"/>
		<path fill="#393939" d="M227.858,219.583c0.002-0.162,0.003-0.324,0.005-0.487c3.275-0.757,6.545-1.531,9.727-2.63
			c0.119-0.041,0.233-0.1,0.349-0.15c-0.028,0.122-0.056,0.244-0.085,0.367c-3.022,1.135-6.094,2.101-9.244,2.812
			C228.365,219.551,228.108,219.555,227.858,219.583z"/>
		<path fill="#393939" d="M219.111,207.235c-0.071-0.201-0.244-0.294-0.414-0.391c2.737-1.186,5.513-2.285,8.152-3.685
			c-0.012,0.146-0.024,0.292-0.035,0.438c-2.172,1.166-4.365,2.292-6.634,3.261C219.833,207.006,219.513,207.239,219.111,207.235z"
			/>
		<path fill="#393939" d="M225.803,237.073c-0.002-0.159-0.005-0.319-0.007-0.478c2.276,0.362,4.545,0.77,6.854,0.878
			c1.068,0.05,2.134,0.123,3.204,0.046c-0.015,0.103-0.029,0.206-0.044,0.309c-2.985,0.186-5.949-0.008-8.899-0.476
			C226.537,237.292,226.172,237.168,225.803,237.073z"/>
		<path fill="#393939" d="M286.618,365.308c-0.112,0.107-0.224,0.213-0.336,0.32c-1.989-1.139-3.886-2.412-5.647-3.882
			c0,0-0.023,0.021-0.023,0.021c0.142-0.169,0.296-0.1,0.439-0.009C282.908,362.94,284.763,364.125,286.618,365.308z"/>
		<path fill="#8A9998" d="M148.396,255.897c0.119,0.068,0.297,0.1,0.182,0.307c-0.913,1.655-2.09,3.121-3.274,4.589
			C146.169,259.052,147.143,257.387,148.396,255.897z"/>
		<path fill="#393939" d="M178.227,352.924c0.911,0.862,1.262,1.983,1.467,3.171c-0.118,0.003-0.235,0.006-0.353,0.008
			c-0.305-0.919-0.767-1.763-1.235-2.605C178.146,353.307,178.186,353.115,178.227,352.924z"/>
		<path fill="#8D9B9B" d="M238.65,237.305c1.365-0.259,2.729-0.517,4.094-0.776c-1.307,0.566-2.668,0.898-4.076,1.042
			C238.662,237.483,238.656,237.394,238.65,237.305z"/>
		<path fill="#8D9B9B" d="M237.854,216.683c0.028-0.122,0.056-0.244,0.085-0.367c0.859-0.347,1.717-0.697,2.58-1.034
			c0.105-0.041,0.24-0.006,0.501-0.006C239.99,216.019,238.929,216.367,237.854,216.683z"/>
		<path fill="#8A9998" d="M179.737,357.651c0.013,1.068-0.489,1.912-1.165,2.68c-0.081-0.068-0.161-0.136-0.242-0.205
			c0.36-0.829,0.72-1.658,1.08-2.486C179.516,357.716,179.625,357.723,179.737,357.651z"/>
		<path fill="#8A9998" d="M226.814,203.597c0.012-0.146,0.023-0.292,0.035-0.438c0.697-0.466,1.409-0.903,2.203-1.188
			c0.062,0.07,0.124,0.139,0.186,0.209C228.496,202.763,227.694,203.247,226.814,203.597z"/>
		<path fill="#8A9998" d="M238.65,237.305c0.006,0.089,0.012,0.178,0.018,0.267c-0.954,0.07-1.886,0.392-2.858,0.256
			c0.015-0.103,0.029-0.206,0.044-0.309C236.765,237.167,237.717,237.359,238.65,237.305z"/>
		<path fill="#8D9B9B" d="M229.052,201.97c0.428-0.405,0.951-0.641,1.531-0.806c-0.316,0.507-0.806,0.792-1.345,1.015
			C229.176,202.109,229.114,202.04,229.052,201.97z"/>
		<path fill="#393939" d="M194.464,389.045c-0.201-0.217-0.402-0.434-0.603-0.651c0.567,0.156,0.418-0.5,0.725-0.639
			c0.108,0.004,0.215,0.007,0.323,0.011C194.877,388.233,194.3,388.51,194.464,389.045z"/>
		<path fill="#8D9B9B" d="M242.772,214.425c-0.377,0.417-0.876,0.575-1.398,0.686c0.424-0.323,0.888-0.56,1.41-0.674
			L242.772,214.425z"/>
		<path fill="#0F0F0F" d="M178.227,352.924c-0.04,0.192-0.081,0.384-0.121,0.575c-0.343-0.31-0.686-0.62-1.03-0.931
			c0.185-0.066,0.37-0.133,0.555-0.199C177.907,352.471,178.096,352.666,178.227,352.924z"/>
		<path fill="#8D9B9B" d="M143.931,263.018c0.143-0.668,0.316-0.991,0.83-1.346C144.637,262.293,144.416,262.605,143.931,263.018z"
			/>
		<path fill="#0F0F0F" d="M179.737,357.651c-0.111,0.072-0.22,0.065-0.327-0.011c0.056-0.516,0.023-1.028-0.069-1.537
			c0.118-0.003,0.235-0.006,0.353-0.008C179.825,356.61,179.755,357.131,179.737,357.651z"/>
		<path fill="#393939" d="M280.1,361.281c-0.025-0.191,0.067-0.287,0.251-0.308c-0.187,0.355,0.471,0.432,0.262,0.794
			c0,0,0.023-0.021,0.023-0.021C280.361,361.702,280.143,361.592,280.1,361.281z"/>
		<path fill="#8D9B9B" d="M143.44,263.894c-0.062-0.317,0.035-0.567,0.413-0.806c0.018,0.41-0.111,0.642-0.43,0.788L143.44,263.894z
			"/>
		<path fill="#8D9B9B" d="M142.999,264.451c0.031,0.052,0.069,0.099,0.084,0.152c0.006,0.023-0.029,0.069-0.057,0.088
			c-0.086,0.059-0.16,0.031-0.153-0.068C142.877,264.566,142.95,264.513,142.999,264.451z"/>
		<path fill="#8D9B9B" d="M176.824,361.933c0,0,0.047-0.018,0.047-0.018c0.086-0.265,0.236-0.444,0.546-0.411l-0.011-0.011
			C177.284,361.737,177.095,361.889,176.824,361.933z"/>
		<path fill="#ECECEC" d="M232.512,200.029c-0.109,0.195-0.294,0.256-0.499,0.284l-0.079-0.079c0.131-0.187,0.324-0.237,0.537-0.246
			L232.512,200.029z"/>
		<path fill="#8D9B9B" d="M242.784,214.437c0.064-0.042,0.13-0.119,0.191-0.116c0.052,0.003,0.016,0.06-0.101,0.054
			c-0.033-0.002-0.068,0.032-0.102,0.05C242.772,214.425,242.784,214.437,242.784,214.437z"/>
		<path fill="#8D9B9B" d="M178.572,360.331c-0.087,0.169-0.171,0.34-0.36,0.421c-0.07-0.056-0.14-0.113-0.208-0.168
			c0.11-0.152,0.218-0.305,0.327-0.458C178.41,360.195,178.491,360.263,178.572,360.331z"/>
		<path fill="#ECECEC" d="M231.205,200.644c0.059-0.01,0.118-0.02,0.177-0.03c-0.012,0.057-0.024,0.114-0.035,0.171
			C231.266,200.771,231.218,200.724,231.205,200.644z"/>
		<path fill="#8D9B9B" d="M231.347,200.785c-0.087,0.06-0.178,0.217-0.275,0.114c-0.099-0.105,0.087-0.166,0.133-0.255
			C231.218,200.724,231.266,200.771,231.347,200.785z"/>
		<path fill="#8D9B9B" d="M178.211,360.753c-0.039,0.134-0.123,0.222-0.26,0.258c-0.044-0.042-0.089-0.084-0.132-0.124
			c0.062-0.1,0.122-0.202,0.182-0.303C178.072,360.64,178.141,360.696,178.211,360.753z"/>
		<path fill="#8D9B9B" d="M177.951,361.01c-0.042,0.136-0.127,0.224-0.272,0.244c0,0-0.024-0.025-0.024-0.025
			c-0.035-0.157,0.055-0.255,0.163-0.345C177.863,360.926,177.907,360.968,177.951,361.01z"/>
		<path fill="#8D9B9B" d="M143.423,263.876c-0.025,0.065-0.051,0.13-0.076,0.195c-0.03-0.036-0.059-0.073-0.089-0.109
			c0.061-0.023,0.122-0.045,0.182-0.068C143.44,263.894,143.423,263.876,143.423,263.876z"/>
		<path fill="#8D9B9B" d="M177.679,361.255c-0.033,0.147-0.12,0.231-0.274,0.239c0,0,0.011,0.011,0.011,0.011
			c-0.027-0.184,0.06-0.27,0.239-0.275L177.679,361.255z"/>
		<path fill="#8D9B9B" d="M145.06,261.397c-0.079,0.065-0.214,0.199-0.23,0.186c-0.17-0.137-0.062-0.252,0.056-0.358
			C144.945,261.282,145.003,261.339,145.06,261.397z"/>
		<path fill="#ECECEC" d="M232.014,200.313c-0.057,0.03-0.115,0.06-0.172,0.089c0.031-0.056,0.062-0.112,0.093-0.168
			C231.935,200.234,232.014,200.313,232.014,200.313z"/>
		<path fill="#ECECEC" d="M232.471,199.988c0.045-0.031,0.09-0.062,0.135-0.093c-0.032,0.045-0.063,0.089-0.094,0.134
			C232.512,200.029,232.471,199.988,232.471,199.988z"/>
		<path fill="#0F0F0F" d="M194.909,387.766c-0.108-0.004-0.215-0.007-0.323-0.011c0.042-0.138,0.085-0.276,0.127-0.414
			c0.09,0.077,0.18,0.155,0.27,0.232C195.005,387.655,194.98,387.719,194.909,387.766z"/>
		<path fill="#8A9998" d="M144.886,261.226c0.081-0.067,0.219-0.204,0.236-0.19c0.179,0.143,0.055,0.255-0.062,0.362
			C145.003,261.339,144.945,261.282,144.886,261.226z"/>
		<path fill="#8C9A99" d="M111.329,219.892c-0.582-0.78-0.404-1.729-0.491-2.589c-0.756-7.503-0.311-14.911,1.973-22.146
			c0.528-1.672,1.135-3.318,2.014-4.991c0.599,0.395,1.15,0.767,1.71,1.124c0.266,0.17,0.575,0.28,0.804-0.03
			c0.248-0.335,0.141-0.637-0.188-0.88c-4.482-3.306-7.779-7.718-11.149-12.047c-4.403-5.656-8.366-11.625-12.352-17.579
			c-6.545-9.776-10.842-20.51-13.78-31.836c-2.083-8.027-3.42-16.186-4.195-24.442c-0.55-5.859-0.748-11.726-0.775-17.609
			c-0.026-5.494-0.51-10.966-1.144-16.425c-0.594-5.117-1.387-10.198-2.645-15.197c-0.965-3.836-2.151-7.59-4.137-11.046
			c-1.431-2.49-3.34-4.398-6.051-5.526c-2.416-1.006-4.685-2.323-6.772-3.925c-0.683-0.524-1.303-1.111-1.834-1.794
			c-0.403-0.519-0.407-0.967,0.047-1.482c1.283-1.456,2.911-2.236,4.796-2.496c3.287-0.453,6.387,0.301,9.39,1.567
			c4.818,2.031,9.122,4.915,13.264,8.064c9.741,7.406,17.874,16.262,24.115,26.814c5.95,10.061,10.108,20.81,12.142,32.338
			c1.753,9.933,2.947,19.934,3.496,30.013c0.371,6.816,0.548,13.631,0.492,20.455c-0.041,4.942,0.171,9.866,1.234,14.715
			c0.497,2.269,1.183,4.476,2.296,6.53c0.556,1.026,1.226,1.965,2.097,2.749c2.184,1.965,4.721,1.661,6.391-0.751
			c0.21-0.304,0.292-0.706,0.755-0.982c0.188,1.662,0.302,3.266,0.568,4.843c0.205,1.214,0.085,2.344-0.238,3.517
			c-0.466,1.695-0.735,3.437-0.863,5.196c-0.019,0.256-0.062,0.515-0.036,0.766c0.029,0.28,0.214,0.473,0.513,0.479
			c0.235,0.005,0.426-0.143,0.486-0.353c0.081-0.284,0.101-0.588,0.134-0.884c0.338-3.038,0.945-6.014,2.075-8.865
			c0.603-1.522,1.348-2.971,2.385-4.248c2.149-2.647,4.876-3.662,8.23-2.898c3.044,0.693,5.594,2.339,8.043,4.173
			c0.789,0.591,1.529,1.246,2.292,1.871c0.232,0.19,0.455,0.394,0.703,0.561c0.233,0.157,0.485,0.162,0.692-0.067
			c0.207-0.228,0.199-0.508,0.008-0.7c-0.454-0.454-0.94-0.877-1.43-1.293c-0.578-0.491-1.174-0.96-1.877-1.533
			c2.242-1.1,4.408-1.714,6.677-1.952c3.539-0.372,6.927,0.184,10.108,1.807c0.558,0.285,1.018,0.288,1.568,0.014
			c0.885-0.441,1.834-0.706,2.81-0.887c2.149-0.398,4.082,0.076,5.827,1.369c1.511,1.12,2.548,2.603,3.442,4.342
			c-1.32,0.198-2.497,0.343-3.662,0.558c-1.269,0.234-2.483,0.66-3.649,1.214c-0.269,0.128-0.539,0.269-0.771,0.451
			c-0.172,0.136-0.223,0.356-0.095,0.578c0.117,0.204,0.304,0.357,0.519,0.3c0.327-0.088,0.632-0.256,0.946-0.39
			c3.116-1.327,6.332-1.855,9.673-1.091c3.105,0.71,5.498,2.525,7.419,5.007c0.998,1.29,1.899,2.644,2.476,4.186
			c-0.06,0.064-0.119,0.128-0.179,0.191c-1.777-0.264-3.553-0.529-5.36-0.412c-1.476,0.096-2.87,0.441-4.134,1.239
			c-0.587,0.37-1.093,0.826-1.52,1.369c-0.783,0.995-0.765,1.138,0.148,1.97c3.951,3.599,7.423,7.589,10.008,12.301
			c0.847,1.543,1.551,3.147,2.068,4.831c0.125,0.408,0.295,0.806,0.239,1.249c-1.545-0.655-3.136-1.166-4.8-1.402
			c-3.463-0.492-6.582,0.104-8.976,2.921c-0.134,0.158-0.323,0.27-0.487,0.403c-0.83-0.253-1.49-0.822-2.246-1.213
			c-4.613-2.389-9.326-4.293-14.692-3.04c-0.068-0.046-0.164-0.077-0.201-0.141c-2.106-3.656-5.129-6.389-8.659-8.611
			c-0.166-0.105-0.4-0.153-0.435-0.458c1.06,0,2.108-0.021,3.156,0.005c1.669,0.041,3.338,0.141,5.007,0.165
			c1.865,0.027,2.887-1.062,2.451-2.864c-1.043-4.314-3.544-7.531-8.414-7.876c-4.789-0.338-9.374,0.545-13.796,2.366
			c-0.158,0.065-0.314,0.14-0.461,0.227c-1.244,0.732-1.607,2.055-0.912,3.317c0.307,0.558,0.807,1,0.977,1.64
			c-0.626,0.225-1.275,0.113-1.912,0.115c-3.23,0.014-6.402,0.463-9.501,1.349c-7.686,2.196-13.664,6.768-18.213,13.279
			c-2.021,2.893-3.653,5.995-4.94,9.284C111.864,219.162,111.914,219.738,111.329,219.892z M73.673,43.675
			c-0.048,0.463,0.058,0.735,0.158,1.016c0.519,1.454,1.05,2.903,1.536,4.368c0.998,3.011,2.383,5.881,3.213,8.955
			c1.244,4.609,1.931,9.318,2.502,14.042c0.989,8.179,1.587,16.394,2.071,24.616c0.346,5.868,0.757,11.725,1.549,17.553
			c1.095,8.06,2.964,15.924,5.777,23.558c2.227,6.044,4.916,11.887,7.741,17.667c2.429,4.969,4.662,10.037,7.371,14.867
			c1.704,3.038,3.584,5.956,6.12,8.392c1.03,0.99,2.151,1.842,3.503,2.344c2.136,0.793,4.077,0.314,5.409-1.441
			c1.283-1.689,1.777-3.596,1.223-5.699c-0.208-0.787-0.426-1.574-0.686-2.345c-4.824-14.316-7.725-29.068-9.852-43.983
			c-1.005-7.046-1.958-14.095-3.389-21.071c-1.994-9.72-4.598-19.263-8.275-28.491c-3.189-8.002-7.077-15.626-12.347-22.484
			c-2.889-3.76-6.112-7.191-10.014-9.929C76.194,44.845,75.08,44.125,73.673,43.675z M139.181,187.468
			c0.082,1.799,0.187,3.594,0.613,5.355c0.088,0.362,0.229,0.703,0.653,0.636c0.424-0.067,0.476-0.435,0.418-0.805
			c-0.133-0.846-0.31-1.687-0.399-2.538c-0.284-2.704-0.31-5.397,0.641-8.001c0.847-2.319,2.385-3.933,4.815-4.597
			c0.912-0.249,1.838-0.402,2.789-0.398c2.12,0.008,4.173,0.43,6.185,1.043c1.268,0.386,2.51,0.86,3.756,1.317
			c0.359,0.132,0.694,0.197,0.889-0.187c0.251-0.493-0.127-0.706-0.497-0.852c-0.756-0.3-1.519-0.585-2.288-0.85
			c-2.852-0.982-5.754-1.667-8.805-1.541c-3.837,0.158-6.662,2.237-7.946,5.849C139.365,183.705,139.238,185.578,139.181,187.468z"
			/>
		<path fill="#8C9A99" d="M124.214,273.609c4.098-0.863,8.168-0.826,12.182,0.451c1.651,0.525,3.195,1.314,4.429,2.539
			c1.601,1.589,3.537,2.542,5.614,3.277c3.041,1.077,6.183,1.751,9.356,2.278c8.691,1.444,17.449,2.081,26.254,2.109
			c4.807,0.016,9.595,0.186,14.33,1.15c5.028,1.024,9.841,2.647,14.444,4.908c10.5,5.157,20.471,11.172,29.707,18.37
			c2.301,1.793,4.536,3.673,6.403,5.94c0.289,0.35,0.677,0.657,0.737,1.242c-1.068,0.186-2.119,0.322-3.147,0.557
			c-3.866,0.886-7.03,2.846-9.362,6.115c-1.308,1.834-1.838,3.945-2.378,6.065c-0.102,0.403-0.068,0.852-0.395,1.193
			c-0.486-0.068-0.685-0.494-0.973-0.785c-3.556-3.603-7.114-7.203-10.929-10.537c-6.01-5.252-12.646-9.415-20.354-11.712
			c-6.319-1.883-12.775-2.432-19.339-2.051c-3.858,0.224-7.658,0.92-11.497,1.295c-10.095,0.986-20.124,0.926-30.01-1.701
			c-1.2-0.319-2.372-0.74-3.563-1.093c-0.569-0.169-0.802-0.485-0.814-1.106c-0.04-1.977-0.289-3.935-0.76-5.859
			c-0.41-1.678-1.009-3.278-2.021-4.698c-0.658-0.924-1.461-1.686-2.502-2.161c-0.307-0.14-0.624-0.295-0.986-0.239
			c-0.238,0.037-0.397,0.174-0.45,0.397c-0.052,0.219,0.004,0.431,0.207,0.563c0.106,0.069,0.228,0.119,0.349,0.16
			c1.684,0.567,2.602,1.901,3.323,3.395c0.924,1.917,1.32,3.984,1.552,6.08c0.384,3.471,0.232,6.939-0.107,10.405
			c-0.583,5.947-1.762,11.784-3.145,17.588c-1.09,4.573-1.594,9.21-1.334,13.915c0.052,0.934,0.159,1.866,0.253,2.947
			c-1.06-0.571-2.04-0.968-3.096-1.134c0.857-4.598,1.173-9.246,1.248-13.912c0.096-5.955-0.128-11.901-0.416-17.85
			c-0.217-4.493-0.564-8.965-1.147-13.422c-0.611-4.668-0.948-9.359-1.301-14.052c-0.161-2.135-0.149-4.275-0.368-6.408
			C124.064,276.44,123.974,275.016,124.214,273.609z"/>
		<path fill="#ECECEC" d="M194.714,387.341c-0.042,0.138-0.085,0.276-0.127,0.414c-0.307,0.139-0.159,0.795-0.725,0.639
			c-2.191-2.368-4.667-4.416-7.224-6.366c-6.555-5-13.57-9.286-20.769-13.276c-1.482-0.821-3.08-1.432-4.623-2.144
			c-0.166-0.077-0.343-0.127-0.415,0.079c-0.057,0.163,0.027,0.326,0.194,0.427c1.613,0.971,3.202,1.982,4.839,2.91
			c6.936,3.932,13.736,8.076,20.091,12.911c2.63,2.001,5.141,4.141,7.413,6.547c1.595,1.689,3.052,3.483,3.919,5.677
			c1.017,2.574,0.497,4.793-1.573,6.617c-0.511,0.451-1.113,0.797-1.651,1.219c-0.164,0.128-0.532,0.123-0.418,0.496
			c-0.399-0.062-0.856,0.293-1.104-0.455c-0.721-2.173-2.218-3.845-3.836-5.395c-2.582-2.474-5.538-4.455-8.56-6.34
			c-1.452-0.906-2.897-1.827-4.441-2.574c-2.123-1.391-4.414-2.456-6.675-3.58c-0.047,0.085-0.095,0.17-0.142,0.255
			c2.151,1.223,4.301,2.446,6.452,3.669c2.536,1.679,5.122,3.285,7.546,5.131c2.188,1.666,4.298,3.419,6.163,5.449
			c0.903,0.983,1.717,2.033,2.252,3.27c0.889,2.056,0.518,3.648-1.281,4.992c-2.637,1.97-5.565,2.312-8.658,1.309
			c-1.86-0.603-3.546-1.576-4.932-2.943c-3.412-3.365-7.46-5.723-11.754-7.744c-5.815-2.737-11.622-5.486-17.725-7.544
			c-2.034-0.686-4.111-1.192-6.205-1.642c-9.646-2.073-16.578-9.507-17.818-19.258c-0.565-4.445-0.004-8.82,1.439-13.064
			c0.72-2.117,1.974-3.908,3.703-5.319c2.167-1.769,4.514-3.264,7.093-4.374c3.539-1.523,7.171-1.451,10.846-0.63
			c4.668,1.042,9.082,2.821,13.382,4.849c2.009,0.948,3.989,1.382,6.183,1.231c2.096-0.144,4.191-0.298,6.286-0.455
			c1.744-0.131,3.506-0.403,5.219,0.238c0.343,0.31,0.686,0.62,1.03,0.931c0.468,0.842,0.93,1.686,1.235,2.605
			c0.092,0.509,0.125,1.021,0.069,1.537c-0.36,0.829-0.72,1.658-1.08,2.486c-0.109,0.153-0.217,0.306-0.327,0.458
			c-0.062,0.1-0.122,0.202-0.184,0.302c-0.109,0.089-0.199,0.187-0.164,0.344c-0.179,0.005-0.266,0.09-0.239,0.275
			c-0.31-0.033-0.46,0.146-0.546,0.411c-0.49,0.281-0.8-0.144-1.144-0.328c-2.108-1.125-4.189-2.306-6.474-3.054
			c-0.243-0.079-0.489-0.146-0.734-0.219c-0.575-0.358-1.211-0.501-1.865-0.589c0.447,0.423,0.92,0.762,1.489,0.934
			c1.3,0.823,2.618,1.616,3.987,2.322c5.221,2.691,10.247,5.69,14.763,9.479c2.205,1.85,4.234,3.871,5.854,6.269
			c1.545,2.287,2.466,4.771,2.42,7.576C195.149,385.345,194.917,386.337,194.714,387.341z M147.044,375.134
			c0.021,0.069,0.042,0.138,0.063,0.207c0.035-0.037,0.069-0.074,0.104-0.11c-0.064-0.024-0.127-0.048-0.191-0.072
			c0.084-0.253-0.023-0.414-0.246-0.521c0.01-0.072-0.018-0.122-0.085-0.15c-1.331-1.971-3.193-3.339-5.224-4.473
			c-5.016-2.801-10.461-4.127-16.158-4.615c0.031,0.139,0.105,0.147,0.199,0.173c2.178,0.618,4.365,1.206,6.526,1.878
			c5.207,1.619,10.304,3.475,14.467,7.201c0.016,0.164,0.11,0.25,0.27,0.27C146.778,375.1,146.853,375.192,147.044,375.134z
			 M160.437,366.258c-0.176-0.092-0.352-0.184-0.528-0.275c-0.279-0.234-0.559-0.464-1.014-0.309
			c0.251,0.434,0.626,0.578,1.001,0.722c0.176,0.079,0.352,0.158,0.528,0.238c0.109,0.032,0.249,0.121,0.294-0.054
			C160.769,366.369,160.571,366.331,160.437,366.258z M141.521,358.584c-0.134,0.026-0.203,0.089-0.123,0.227
			c0.01,0.017,0.056,0.012,0.086,0.017c0.006-0.081,0.011-0.161,0.017-0.242c-3.458-3.344-10.915-5.933-14.128-4.897
			c0.835,0.219,1.666,0.423,2.488,0.655c3.829,1.078,7.694,2.064,11.095,4.26C141.136,358.721,141.347,358.782,141.521,358.584z
			 M165.965,383.733l-0.044,0.051l0.072,0.011L165.965,383.733z M166.555,384.039c-0.025-0.025-0.047-0.068-0.074-0.07
			c-0.027-0.003-0.057,0.035-0.086,0.054c0.025,0.025,0.048,0.067,0.075,0.069C166.497,384.095,166.527,384.058,166.555,384.039z
			 M166.985,384.369c0.033-0.026,0.066-0.052,0.098-0.078c-0.031-0.029-0.06-0.078-0.092-0.08c-0.032-0.001-0.065,0.046-0.098,0.072
			C166.924,384.312,166.954,384.34,166.985,384.369z M167.512,384.482c-0.028,0.02-0.055,0.039-0.083,0.059
			c0.025,0.023,0.048,0.063,0.075,0.065c0.026,0.002,0.055-0.034,0.083-0.054C167.561,384.528,167.537,384.505,167.512,384.482z
			 M168.024,384.718c-0.038,0.03-0.071,0.054-0.103,0.079c0.029,0.028,0.057,0.077,0.088,0.079c0.031,0.002,0.064-0.044,0.096-0.069
			C168.078,384.778,168.051,384.748,168.024,384.718z M168.59,385.021c-0.026-0.013-0.059-0.044-0.081-0.037
			c-0.034,0.011-0.089,0.061-0.085,0.07c0.047,0.097,0.109,0.113,0.164,0.046C168.601,385.084,168.59,385.049,168.59,385.021z"/>
		<path fill="#F9F8FA" d="M124.214,273.609c-0.24,1.406-0.15,2.831-0.007,4.223c0.219,2.133,0.207,4.274,0.368,6.408
			c0.353,4.693,0.69,9.384,1.301,14.052c0.583,4.457,0.93,8.929,1.147,13.422c0.288,5.949,0.512,11.895,0.416,17.85
			c-0.075,4.666-0.391,9.315-1.248,13.912c-0.956,0.215-1.958,0.26-2.838,0.755c-0.299,0.168-0.512,0.085-0.806-0.086
			c-7.923-4.631-15.651-9.548-22.711-15.446c-3.891-3.25-7.532-6.751-10.655-10.764c-1.318-1.693-2.512-3.47-3.541-5.355
			c-0.224-0.411-0.497-0.807-0.526-1.299c0.916-0.405,1.35-1.285,1.899-2.019c2.733-3.659,4.837-7.685,6.753-11.814
			c4.772-10.287,8.374-21.008,11.821-31.79c2.769-8.66,7.213-16.369,13.395-23.055c0.315-0.341,0.582-0.753,1.059-0.911
			c3.881,2.727,8.335,3.871,12.911,4.674c0.042,0.007,0.085,0.013,0.127,0.016c1.356,0.105,2.539,0.507,3.44,1.638
			c0.492,0.618,1.179,1.081,1.771,1.609c-0.174,0.466-0.547,0.626-0.838,0.857c-3.027,2.397-5.937,4.915-8.315,7.987
			c-0.497,0.642-1.009,1.275-1.388,1.999c-1.42,1.89-2.298,4.042-3.018,6.27c-0.407,0.979-0.687,1.985-0.64,3.06
			c-0.292,0.93-0.468,1.869-0.215,2.841C123.727,273.055,123.938,273.344,124.214,273.609z"/>
		<path fill="#ECECEC" d="M280.613,361.767c0.209-0.362-0.449-0.439-0.262-0.794c1.045-0.289,1.999-0.768,2.848-1.436
			c1.654-1.3,2.232-3.009,1.571-5.038c-1.048-3.212-3.221-5.417-6.344-6.66c-2.792-1.111-5.684-1.153-8.608-0.66
			c-0.207,0.035-0.406,0.133-0.714,0.023c-0.579-2.063-1.307-4.14-2.174-6.195c-0.327,0.945-0.223,1.872-0.026,2.824
			c0.198,0.957,0.709,1.805,1,3.001c-1.207-0.559-2.223-1.051-3.258-1.5c-0.393-0.17-0.909-0.657-1.232-0.05
			c-0.371,0.699,0.347,0.827,0.782,1.035c1.197,0.574,2.423,1.091,3.597,1.708c0.735,0.386,1.436,0.394,2.223,0.251
			c2.478-0.451,4.949-0.433,7.373,0.346c2.76,0.888,4.762,2.665,6.003,5.276c1.117,2.35,0.51,4.131-1.794,5.377
			c-1.532,0.828-3.197,1.295-4.912,1.399c-8.996,0.542-17.485-1.183-25.252-5.904c-3.936-2.393-7.213-5.517-9.855-9.293
			c-3.122-4.463-3.718-9.338-2.093-14.463c1.079-3.404,3.334-5.686,6.875-6.685c1.642-0.463,3.223-1.147,4.914-1.468
			c7.074-1.343,13.618,0.074,19.723,3.781c1.691,1.026,3.279,2.197,4.746,3.522c0.644,0.581,1.346,1.048,2.11,1.448
			c9.776,5.116,19.986,9.209,30.379,12.865c3.109,1.094,6.252,2.089,9.384,3.117c1.245,0.409,2.366,1.001,3.223,2.02
			c1.042,1.238,1.347,2.643,0.96,4.212c-0.098,0.398-0.238,0.67-0.685,0.413c-2.058-1.185-4.381-1.415-6.643-1.873
			c-4.202-0.851-8.33-1.981-12.408-3.3c-0.325-0.105-0.658-0.188-0.987-0.282c-2.105-0.804-4.209-1.608-6.314-2.412
			c-0.593-0.323-1.169-0.704-1.915-0.552c0.534,0.328,1.018,0.739,1.678,0.784c2.013,0.953,4.043,1.867,6.178,2.521
			c3.977,1.615,8.087,2.808,12.238,3.868c1.452,0.371,2.918,0.686,4.375,1.039c0.96,0.232,1.887,0.557,2.772,1.003
			c2.741,1.379,3.91,3.647,3.405,6.671c-0.127,0.76-0.321,1.508-0.484,2.262c-0.478,0.48-0.233,1.37-0.965,1.706
			c-0.75-1.277-1.946-2.021-3.215-2.662c-2.467-1.244-5.11-1.942-7.818-2.389c-2.888-0.477-5.642-1.369-8.324-2.509
			c-1.317-0.56-2.619-1.152-3.928-1.73c-0.14-0.072-0.284-0.222-0.43-0.03c-0.139,0.183-0.017,0.296,0.141,0.383
			c3.891,2.203,7.97,3.902,12.382,4.76c2.268,0.441,4.493,1.057,6.62,1.987c1.024,0.448,2.004,0.975,2.839,1.727
			c1.384,1.248,1.621,2.537,0.643,4.122c-1.588,2.576-3.946,4.119-6.871,4.773c-2.782,0.622-5.542,0.222-8.265-0.41
			c-5.207-1.207-10.04-3.37-14.721-5.9c-1.504-0.813-2.99-1.659-4.484-2.49c-1.855-1.184-3.711-2.369-5.567-3.551
			C280.908,361.667,280.755,361.598,280.613,361.767z M292.58,353.264c0.091,0.109,0.177,0.338,0.339,0.164
			c0.164-0.176-0.123-0.211-0.188-0.323c-0.221-0.233-0.443-0.467-0.9-0.293C292.03,353.119,292.187,353.362,292.58,353.264z
			 M296.84,355.838c0.098-0.004,0.213,0.144,0.293-0.033c0.128-0.283-0.138-0.294-0.272-0.397c-1.154-0.721-2.36-1.338-3.638-1.821
			C294.34,354.492,295.528,355.266,296.84,355.838z M291.419,352.278c-0.072,0.064-0.168,0.111-0.168,0.157
			c0,0.143,0.109,0.231,0.239,0.256c0.112,0.021,0.282,0.027,0.192-0.168C291.635,352.422,291.508,352.357,291.419,352.278z
			 M297.449,356.05c0.054-0.03,0.11-0.061,0.166-0.092c-0.029-0.029-0.063-0.085-0.085-0.081c-0.061,0.014-0.116,0.052-0.173,0.081
			C297.386,355.987,297.414,356.016,297.449,356.05z M298.038,356.308c0.034-0.034,0.063-0.063,0.092-0.092
			c-0.057-0.029-0.112-0.067-0.173-0.081c-0.021-0.005-0.056,0.052-0.085,0.081C297.928,356.247,297.984,356.278,298.038,356.308z"
			/>
		<path fill="#F9F8FA" d="M111.329,219.892c0.585-0.154,0.535-0.73,0.691-1.128c1.287-3.288,2.919-6.391,4.94-9.284
			c4.549-6.511,10.527-11.083,18.213-13.279c3.099-0.885,6.271-1.335,9.501-1.349c0.637-0.003,1.286,0.109,1.912-0.115
			c0.35,0.204,0.539,0.552,0.73,0.88c0.77,1.323,1.922,1.852,3.428,1.82c1.282-0.027,2.567,0.062,3.851,0.078
			c0.614,0.008,1.162,0.169,1.71,0.454c3.581,1.86,6.727,4.25,9.155,7.506c2.084,2.793,3.207,5.924,3.163,9.438
			c-0.015,1.235-0.015,1.269-1.21,1.412c-6.04,0.723-11.974,1.981-17.85,3.53c-0.247,0.065-0.485,0.164-0.728,0.247
			c-0.263-0.043-0.497,0.061-0.743,0.128c-3.556,0.971-7.068,2.084-10.565,3.246c-2.021,0.54-3.956,1.303-5.885,2.082
			c0.037,0.105,0.074,0.21,0.111,0.316c1.908-0.661,3.817-1.323,5.725-1.984c1.012-0.314,2.02-0.646,3.038-0.94
			c2.773-0.8,5.551-1.585,8.326-2.376c4.368-1.027,8.747-2.002,13.19-2.652c2.066-0.302,4.133-0.628,6.318-0.7
			c-0.37,2.461-1.292,4.599-2.416,6.666c-0.235,0.431-0.681,0.477-1.08,0.609c-4.423,1.47-8.775,3.123-13.027,5.034
			c-0.232,0.104-0.455,0.231-0.682,0.347c-5.151,2.171-10.064,4.801-14.836,7.701c-0.755,0.225-1.392,0.63-1.884,1.274
			c0.756-0.199,1.438-0.538,2.036-1.048c2.646-1.548,5.37-2.947,8.128-4.281c2.18-1.054,4.375-2.076,6.563-3.113
			c4.012-1.598,8.019-3.209,12.148-4.491c0.366-0.114,0.737-0.212,1.106-0.317c0.091,0.096,0.183,0.193,0.274,0.289
			c-1.876,3.003-4.269,5.57-6.796,8.019c-1.045,1.013-2.155,1.96-3.236,2.936c-0.223,0.201-0.457,0.389-0.672,0.597
			c-0.241,0.234-0.338,0.506-0.073,0.785c0.257,0.27,0.544,0.201,0.805,0.003c0.239-0.181,0.46-0.384,0.688-0.579
			c2.672-2.29,5.197-4.729,7.458-7.431c0.573-0.685,0.522-0.75,1.303-0.176c1.666,1.223,3.477,2.183,5.412,2.907
			c0.197,0.074,0.422,0.097,0.531,0.418c-6.038,4.37-11.44,9.46-16.134,15.293c-1.71,1.85-3.206,3.866-4.609,5.954
			c-0.516,0.124-0.909-0.201-1.322-0.396c-4.365-2.064-8.445-4.554-11.834-8.054c-0.351-0.363-0.75-0.513-1.238-0.587
			c-2.117-0.322-4.212-0.747-6.297-1.245c-7.273-1.737-12.209-6.087-14.852-13.085c-1.217-3.224-1.964-6.558-2.504-9.947
			C111.239,220.845,111.32,220.363,111.329,219.892z M131.851,240.452c-0.226-0.023-0.425,0.006-0.509,0.261
			c-0.058,0.044-0.298-0.034-0.115,0.171c0.032-0.063,0.064-0.127,0.096-0.19c0.226,0.027,0.43,0.007,0.521-0.25
			c0.068-0.027,0.137-0.054,0.205-0.081c-0.038-0.034-0.076-0.067-0.114-0.101C131.906,240.326,131.879,240.389,131.851,240.452z
			 M133.464,239.497c0.315-0.062,0.604-0.158,0.741-0.539c-0.441-0.089-0.661,0.156-0.884,0.393
			c-0.091,0.057-0.254,0.111-0.146,0.239C133.27,239.701,133.388,239.6,133.464,239.497z M129.448,226.531
			c0.798-0.117,1.363-0.212,2.059-0.837C130.652,225.886,130.105,226.028,129.448,226.531z M129.291,226.602
			c-0.47-0.007-0.693,0.086-0.906,0.326C128.737,227.046,128.928,226.869,129.291,226.602z M132.567,240.131
			c0.083-0.074,0.208-0.136,0.248-0.233c0.072-0.175-0.073-0.195-0.18-0.139c-0.099,0.051-0.168,0.16-0.25,0.244
			C132.439,240.04,132.493,240.078,132.567,240.131z M127.81,227.145c-0.033-0.012-0.071-0.042-0.099-0.034
			c-0.115,0.033-0.121,0.09-0.013,0.142c0.025,0.012,0.075-0.003,0.101-0.023C127.815,227.218,127.807,227.174,127.81,227.145z
			 M130.762,241.105l-0.071-0.038l-0.007,0.06L130.762,241.105z"/>
		<path fill="#E9B076" d="M127.62,38.76c1.111,1.063,2.09,2.246,3.019,3.471c3.716,4.901,6.308,10.39,8.401,16.136
			c2.619,7.19,4.35,14.611,5.663,22.137c1.217,6.976,1.987,14.006,2.519,21.063c0.288,3.813,0.181,7.633-0.03,11.446
			c-0.266,4.796-0.685,9.582-1.215,14.356c-0.72,6.477-1.577,12.935-2.682,19.358c-0.995,5.787-2.108,11.549-3.718,17.203
			c-0.258,0.906-0.535,1.807-0.819,2.706c-0.464,1.468-0.992,2.877-2.081,4.059c-0.951,1.034-1.511,2.362-2.189,3.889
			c-0.384-1.717-0.411-3.207-0.547-4.678c-0.181-1.964-0.343-3.931-0.339-5.908c0.001-0.468-0.092-0.939-0.178-1.402
			c-0.051-0.277-0.25-0.452-0.552-0.419c-0.297,0.032-0.47,0.247-0.473,0.518c-0.006,0.642,0.009,1.287,0.064,1.927
			c0.118,1.385-0.034,2.741-0.384,4.077c-0.23,0.877-0.591,1.701-1.141,2.429c-0.424,0.561-0.954,0.986-1.636,1.191
			c-1.002,0.301-1.508,0.053-1.864-0.94c-1.276-3.569-2.021-7.264-2.519-11.008c-1.159-8.709-1.099-17.447-0.613-26.199
			c0.406-7.328,1.191-14.615,2.192-21.881c0.884-6.412,2.085-12.768,3.393-19.108c1.58-7.653,2.563-15.384,2.753-23.213
			c0.232-9.535-1.247-18.792-4.265-27.821c-0.362-1.084-0.69-2.18-1.034-3.271C127.437,38.84,127.529,38.8,127.62,38.76z"/>
		<path fill="#8A9998" d="M125.477,170.202c-0.592-0.547-0.939-1.278-1.279-1.997c-1.072-2.265-1.695-4.667-2.14-7.123
			c-0.791-4.371-0.884-8.785-0.844-13.208c0.051-5.536-0.12-11.066-0.359-16.596c-0.185-4.288-0.483-8.566-0.859-12.839
			c-0.35-3.974-0.787-7.939-1.398-11.881c-0.22-1.416-0.255-2.807-0.095-4.221c0.99-8.754,2.763-17.35,5.247-25.797
			c1.594-5.423,2.543-10.948,2.548-16.601c0.005-5.974-0.903-11.793-3.444-17.273c-0.887-1.913-2.133-3.619-3.126-5.472
			c-1.763-3.292-3.506-6.591-4.442-10.239c-0.267-1.039-0.503-2.092-0.348-3.177c0.199-1.398,0.68-1.831,2.078-1.977
			c4.294-0.449,7.779,1.24,10.82,4.094c2.686,2.521,4.742,5.527,6.585,8.687c3.381,5.796,6.002,11.95,8.499,18.161
			c3.647,9.071,6.973,18.265,10.437,27.406c1.883,4.968,2.77,10.16,3.228,15.439c0.328,3.77,0.34,7.545,0.223,11.32
			c-0.187,6.055-0.89,12.062-1.893,18.03c-2.309,13.738-5.997,27.113-10.692,40.218c-0.13,0.363-0.251,0.73-0.396,1.088
			c-0.079,0.196-0.181,0.437-0.416,0.448c-1.238,0.059-2.377,0.544-3.574,0.912c-0.129-0.494,0.06-0.838,0.17-1.196
			c1.992-6.49,3.301-13.133,4.441-19.813c1.01-5.919,1.834-11.866,2.493-17.833c0.645-5.841,1.114-11.697,1.443-17.568
			c0.372-6.637-0.324-13.195-1.032-19.763c-0.695-6.443-1.72-12.833-3.146-19.155c-1.674-7.421-3.851-14.677-7.172-21.552
			c-2.139-4.428-4.708-8.569-8.069-12.185c-1.196-1.286-2.475-2.479-4.016-3.619c0.089,0.885,0.398,1.543,0.62,2.218
			c1.607,4.887,3.274,9.756,4.332,14.804c1.408,6.713,1.884,13.491,1.568,20.342c-0.412,8.902-1.954,17.63-3.801,26.324
			c-1.096,5.16-1.829,10.385-2.537,15.612c-0.702,5.187-1.267,10.389-1.66,15.607c-0.613,8.137-0.888,16.283-0.299,24.433
			c0.368,5.095,1.007,10.157,2.451,15.082c0.07,0.238,0.076,0.496,0.111,0.744C125.647,170.121,125.562,170.161,125.477,170.202z"/>
		<path fill="#F7F6F8" d="M167.873,206.967c5.366-1.252,10.079,0.651,14.692,3.04c0.756,0.391,1.415,0.96,2.245,1.212
			c-0.108,0.635-0.683,1.158,0.141,1.891c3.935,3.501,6.983,7.634,8.558,12.74c0.031,0.332-0.064,0.746,0.309,0.917
			c0.5,0.229,0.78-0.207,1.089-0.483c5.589-4.992,7.308-11.904,4.781-19.222c-0.802-2.322-1.925-4.486-3.229-6.561
			c-0.226-0.36-0.526-0.682-0.62-1.116c6.096-3.336,11.943-2.811,16.204,1.143c0.884,0.82,1.681,1.716,2.38,2.698
			c0.921,1.294,1.717,2.66,2.366,4.105c-0.321,0.459-0.835,0.47-1.26,0.616c-3.731,1.281-7.536,2.296-11.397,3.101
			c-0.45,0.094-1.083,0.064-0.94,0.751c0.142,0.686,0.74,0.385,1.17,0.318c0.464-0.072,0.945-0.143,1.372-0.325
			c0.654-0.277,0.921,0.004,1.159,0.564c2.023,4.756,1.934,9.436-0.578,13.983c-1.695,3.068-4.185,5.203-7.69,5.932
			c-3.214,0.668-6.136-0.04-8.639-2.186c-0.585-0.502-0.981-0.528-1.636-0.161c-3.217,1.8-6.654,2.916-10.351,3.196
			c-1.511,0.115-2.996-0.057-4.485-0.241c-0.154-0.019-0.329-0.06-0.418-0.33c2.592-1.638,5.325-3.03,8.215-4.115
			c0.28-0.105,0.575-0.179,0.842-0.311c0.243-0.12,0.414-0.347,0.306-0.63c-0.118-0.308-0.37-0.484-0.717-0.383
			c-0.328,0.095-0.648,0.22-0.967,0.343c-2.929,1.136-5.678,2.626-8.284,4.366c-0.719,0.48-1.335,0.555-2.125,0.265
			c-2.027-0.743-3.911-1.734-5.67-2.982c-0.451-0.32-0.496-0.577-0.165-1.029c0.632-0.864,1.232-1.756,1.786-2.672
			c0.277-0.458,0.662-0.603,1.13-0.741c3.043-0.897,6.132-1.598,9.248-2.185c0.21-0.04,0.431-0.039,0.635-0.097
			c0.334-0.095,0.489-0.328,0.421-0.682c-0.061-0.315-0.299-0.42-0.572-0.392c-0.425,0.043-0.849,0.118-1.269,0.203
			c-2.477,0.505-4.926,1.123-7.349,1.846c-0.31,0.093-0.625,0.274-1,0.152c-0.07-0.372,0.149-0.645,0.282-0.942
			c0.648-1.452,1.158-2.95,1.506-4.503c0.226-1.01,0.232-1.022,1.187-1.016c2.316,0.014,4.632,0.035,6.948,0.065
			c1.004,0.013,1.392-0.137,1.295-0.581c-0.162-0.743-0.782-0.515-1.262-0.512c-2.273,0.016-4.545,0.053-6.818,0.077
			c-1.004,0.011-1.032,0.003-1.002-0.926c0.083-2.626-0.473-5.109-1.598-7.472C167.988,207.461,167.857,207.238,167.873,206.967z"/>
		<path fill="#F7F6F8" d="M172.854,243.075c0.968-0.346,1.939-0.689,2.979-0.73c0.851-0.033,0.967,0.089,0.85,0.912
			c-0.187,1.314-0.417,2.623-0.593,3.939c-0.309,2.318,0.683,3.569,3.044,3.793c1.979,0.188,3.94-0.024,5.862-0.507
			c0.51-0.128,0.966-0.197,1.496-0.083c0.882,0.189,1.792,0.107,2.691,0.076c0.276-0.009,0.552-0.001,0.935-0.001
			c-0.25,0.44-0.572,0.567-0.84,0.738c-5.82,3.727-12.111,6.199-19.012,6.91c-6.902,0.711-13.573-0.336-20-2.945
			c-0.276-0.112-0.598-0.154-0.601-0.554c1.526-1.892,3.052-3.783,4.577-5.675c2.651-2.913,5.318-5.807,8.263-8.433
			c2.592-2.311,5.307-4.461,8.164-6.436c0.529-0.366,1.008-0.502,1.655-0.344c1.876,0.46,3.799,0.552,5.805,0.512
			c-0.349,2.238-0.697,4.385-1.011,6.537c-0.088,0.6-0.484,0.601-0.926,0.629c-1.359,0.083-2.577,0.561-3.675,1.358
			c-0.474,0.199-0.904,0.444-0.985,1.117C171.974,243.618,172.414,243.347,172.854,243.075z M170.577,244.308
			c-0.27,0.071-0.43,0.219-0.37,0.523c-0.039,0.006-0.084,0.003-0.116,0.022c-0.02,0.012-0.019,0.058-0.028,0.088
			c0.045-0.04,0.089-0.081,0.133-0.121c0.267,0.007,0.426-0.138,0.521-0.373c0.201-0.16,0.487-0.247,0.573-0.651
			C170.894,243.863,170.749,244.105,170.577,244.308z"/>
		<path fill="#ECECEC" d="M124.223,378.465c-0.722,0.127-1.357-0.164-1.99-0.392c-2.988-1.078-5.088-3.14-6.36-6.008
			c-2.125-4.794-2.232-9.723-0.713-14.696c0.985-3.227,2.471-6.208,4.669-8.801c0.975-1.151,2.043-2.202,3.339-2.99
			c2.594-1.578,4.865-1.1,6.565,1.389c0.311,0.455,0.657,0.9,0.799,1.534c-0.645,0.451-1.305,0.916-1.969,1.377
			c-2.936,2.04-4.847,4.788-5.744,8.255c-1.006,3.89-1.531,7.815-1.046,11.84c0.305,2.53,0.938,4.959,1.991,7.28
			C123.936,377.633,124.201,377.986,124.223,378.465z"/>
		<path fill="#B4163E" d="M193.51,225.85c-1.575-5.105-4.624-9.239-8.558-12.74c-0.824-0.733-0.249-1.257-0.141-1.891
			c0.164-0.132,0.353-0.244,0.487-0.402c2.394-2.818,5.513-3.413,8.976-2.921c1.664,0.236,3.255,0.747,4.8,1.402
			c1.482,4.645,0.584,8.917-2.063,12.893c-0.709,1.065-1.543,2.043-2.459,2.944C194.245,225.436,193.945,225.739,193.51,225.85z"/>
		<path fill="#ECECEC" d="M238.071,341.749c-2.217-0.612-3.54-2.14-4.286-4.233c-0.664-1.862-0.638-3.794-0.426-5.719
			c0.16-1.445,0.499-2.862,0.852-4.277c1.316-5.262,4.793-8.337,9.845-9.817c2.123-0.622,4.307-0.802,6.453-0.207
			c2.068,0.573,3.703,1.822,4.976,3.754c-1.967,0.16-3.775,0.371-5.555,0.793c-1.837,0.435-3.607,1.085-5.354,1.764
			c-2.685,1.043-4.535,3.033-5.666,5.658c-1.509,3.5-1.678,7.131-0.9,10.83c0.088,0.417,0.203,0.829,0.306,1.244
			C238.234,341.607,238.152,341.678,238.071,341.749z"/>
		<path fill="#FAFAFB" d="M188.936,230.907c0.195,3.013-0.227,5.8-0.753,8.57c-0.543,2.858-1.315,5.66-2.184,8.438
			c-0.307,0.98-0.866,1.498-1.869,1.665c-1.438,0.239-2.873,0.467-4.335,0.376c-0.424-0.026-0.852-0.092-1.262-0.2
			c-1.094-0.288-1.53-0.833-1.417-1.946c0.125-1.233,0.355-2.455,0.551-3.68c0.5-3.125,1.009-6.25,1.509-9.375
			c0.055-0.343,0.058-0.673,0.533-0.735C182.922,233.6,185.904,232.464,188.936,230.907z"/>
		<path fill="#F7F6F8" d="M207.629,211.313c3.147-0.937,6.113-1.88,9.008-3.032c0.432-0.172,0.603,0.026,0.757,0.401
			c1.362,3.319,2.195,6.746,2.132,10.355c-0.018,1.053-0.063,1.084-1.089,1.093c-2.695,0.023-5.39,0.036-8.071-0.322
			c-0.982-0.131-1.012-0.117-1.006-1.054C209.378,216.187,208.766,213.764,207.629,211.313z"/>
		<path fill="#FAFAFB" d="M186.691,249.346c1.815-5.796,3.356-11.514,3.383-17.646c0.621,0.308,1.138,0.577,1.666,0.824
			c1.212,0.567,2.477,0.928,3.819,1.019c0.94,0.064,0.968,0.086,0.868,1.079c-0.292,2.902-0.881,5.751-1.621,8.568
			c-0.348,1.323-0.817,2.615-1.137,3.944c-0.292,1.21-0.978,1.805-2.211,1.953C189.93,249.27,188.415,249.564,186.691,249.346z"/>
		<path fill="#F7F6F8" d="M219.361,220.882c-0.586,4.124-2.363,7.41-5.04,10.26c-0.38,0.404-0.656,0.381-1.085,0.104
			c-1.873-1.211-3.628-2.574-5.315-4.03c-0.376-0.325-0.495-0.597-0.24-1.088c0.752-1.452,1.243-2.998,1.461-4.625
			c0.057-0.424,0.187-0.711,0.722-0.66C212.97,221.141,216.083,221.215,219.361,220.882z"/>
		<path fill="#F7F6F8" d="M204.619,230.547c0.38,2.161,0.246,4.323,0.083,6.487c-0.025,0.329-0.199,0.552-0.395,0.779
			c-2.748,3.183-5.678,6.184-8.908,8.885c-0.095,0.079-0.216,0.128-0.374,0.218c-0.166-0.374,0.064-0.664,0.146-0.954
			c1.09-3.834,2.038-7.696,2.353-11.685c0.032-0.406,0.07-0.725,0.606-0.796c2.359-0.316,4.393-1.36,6.202-2.878
			C204.384,230.56,204.484,230.572,204.619,230.547z"/>
		<path fill="#FAFAFB" d="M156.224,196.329c-2.087,0-4.047,0.013-6.007-0.007c-0.723-0.007-1.315-0.323-1.729-0.941
			c-0.594-0.888-1.221-1.754-1.787-2.66c-0.596-0.955-0.421-1.594,0.591-2.073c2.099-0.992,4.33-1.562,6.606-1.973
			c0.405-0.073,0.739-0.109,0.716,0.521c-0.08,2.262,0.466,4.403,1.354,6.469C156.05,195.855,156.117,196.051,156.224,196.329z"/>
		<path fill="#F7F6F8" d="M213.138,232.266c-2.242,1.99-4.56,3.466-7.098,4.576c-0.377-0.276-0.174-0.589-0.158-0.855
			c0.105-1.753,0.178-3.512-0.133-5.243c-0.223-1.24,0.161-2.15,1.151-2.941C208.811,229.41,210.84,230.887,213.138,232.266z"/>
		<path fill="#F7F6F8" d="M191.582,187.55c-0.208,2.311,0.134,4.361,0.844,6.356c0.084,0.236,0.257,0.487-0.091,0.645
			c-0.222,0.101-0.407-0.002-0.563-0.176c-1.315-1.465-2.69-2.869-4.163-4.177c-0.38-0.337-0.14-0.594,0.105-0.853
			C188.73,188.273,189.996,187.748,191.582,187.55z"/>
		<path fill="#F7F6F8" d="M162.991,188.829c1.065,0.282,1.743,0.645,2.269,1.21c1.267,1.364,2.265,2.905,2.78,4.715
			c0.103,0.363,0.147,0.767,0.111,1.142c-0.063,0.667-0.537,0.928-1.422,0.96c-0.645,0.024-1.027-0.132-1.103-0.869
			C165.368,193.476,164.358,191.22,162.991,188.829z"/>
		<path fill="#8A9998" d="M201.426,196.261c-2.075,0.389-3.852,0.971-5.538,1.789c-0.631,0.306-1.002,0.204-1.381-0.354
			c-0.469-0.69-1.001-1.337-1.526-2.029C195.177,194.847,198.663,195.074,201.426,196.261z"/>
		<path fill="#393939" d="M151.154,230.412c-2.188,1.036-4.384,2.058-6.563,3.113c-2.758,1.334-5.482,2.733-8.128,4.281
			c0.005-0.113-0.043-0.19-0.152-0.226c4.773-2.9,9.686-5.53,14.836-7.701C151.149,230.056,151.151,230.234,151.154,230.412z"/>
		<path fill="#F7F6F8" d="M199.612,191.899c-0.016,0.836-0.31,1.344-0.889,1.536c-0.515,0.171-1.169-0.127-1.61-0.763
			c-0.486-0.701-0.644-1.481-0.419-2.306c0.252-0.926,1.105-1.236,1.887-0.682C199.334,190.219,199.623,190.996,199.612,191.899z"/>
		<path fill="#393939" d="M148.844,220.574c-2.776,0.791-5.553,1.575-8.326,2.376c-1.018,0.294-2.026,0.625-3.038,0.94
			c0.016-0.138,0.033-0.275,0.049-0.413c3.497-1.163,7.009-2.275,10.565-3.246c0.246-0.067,0.48-0.171,0.743-0.128
			C148.838,220.259,148.841,220.416,148.844,220.574z"/>
		<path fill="#393939" d="M154.244,248.948c-1.526,1.892-3.052,3.783-4.578,5.675c-0.102-0.002-0.205-0.004-0.307-0.006
			c1.403-2.088,2.899-4.104,4.609-5.954C154.06,248.758,154.152,248.853,154.244,248.948z"/>
		<path fill="#393939" d="M175.338,389.072c-2.151-1.223-4.301-2.446-6.452-3.669c0.047-0.085,0.095-0.17,0.142-0.255
			c2.26,1.124,4.551,2.189,6.675,3.58C175.542,388.801,175.397,388.891,175.338,389.072z"/>
		<path fill="#393939" d="M300.707,349.126c-2.135-0.654-4.165-1.567-6.178-2.521c0.079-0.077,0.158-0.154,0.237-0.232
			c2.105,0.804,4.209,1.608,6.314,2.412C300.956,348.9,300.831,349.013,300.707,349.126z"/>
		<path fill="#ECECEC" d="M162.736,192.308c-0.013,0.48-0.155,0.837-0.588,0.94c-0.381,0.091-0.638-0.178-0.843-0.456
			c-0.339-0.458-0.357-1.194-0.063-1.551c0.183-0.223,0.425-0.299,0.68-0.194C162.507,191.286,162.696,191.786,162.736,192.308z"/>
		<path fill="#393939" d="M172.854,243.075c-0.44,0.271-0.88,0.542-1.32,0.813c0.082-0.673,0.511-0.918,0.985-1.117
			C172.631,242.873,172.743,242.974,172.854,243.075z"/>
		<path fill="#ECECEC" d="M238.315,341.537c0.006,0.097,0.053,0.23,0.008,0.282c-0.084,0.096-0.184,0.019-0.252-0.071
			C238.152,341.678,238.234,341.607,238.315,341.537z"/>
		<path fill="#8C9A99" d="M197.804,186.561c0.041,0.061,0.132,0.152,0.115,0.179c-0.08,0.135-0.191,0.09-0.293,0.011
			C197.684,186.688,197.744,186.624,197.804,186.561z"/>
		<path fill="#FFFFFF" d="M133.999,388.671c-0.088-0.144-0.153-0.306-0.025-0.439c0.036-0.037,0.199,0.049,0.304,0.078
			C134.185,388.431,134.092,388.551,133.999,388.671z"/>
		<path fill="#F9F8FA" d="M164.407,225.603c0.135-0.075,0.289-0.146,0.393,0.01c0.031,0.046-0.076,0.184-0.119,0.28
			C164.59,225.796,164.499,225.7,164.407,225.603z"/>
		<path fill="#393939" d="M168.142,358.661c-0.57-0.172-1.042-0.511-1.489-0.934c0.654,0.087,1.289,0.23,1.865,0.589
			C168.392,358.43,168.267,358.545,168.142,358.661z"/>
		<path fill="#0D0C0B" d="M139.181,187.467c0.057-1.889,0.184-3.761,0.826-5.569c1.284-3.612,4.109-5.691,7.946-5.849
			c3.051-0.126,5.953,0.559,8.805,1.541c0.769,0.265,1.532,0.55,2.288,0.85c0.369,0.146,0.748,0.36,0.497,0.852
			c-0.195,0.384-0.53,0.319-0.889,0.187c-1.246-0.457-2.488-0.931-3.756-1.317c-2.013-0.613-4.065-1.035-6.185-1.043
			c-0.951-0.004-1.877,0.148-2.789,0.398c-2.43,0.665-3.968,2.278-4.815,4.597c-0.951,2.605-0.925,5.297-0.641,8.001
			c0.089,0.851,0.266,1.692,0.399,2.538c0.058,0.369,0.006,0.738-0.418,0.805c-0.424,0.067-0.566-0.274-0.653-0.636
			C139.368,191.062,139.263,189.266,139.181,187.467z"/>
		<path fill="#0F0F0F" d="M146.5,374.651c-4.163-3.726-9.26-5.582-14.467-7.201c-2.161-0.672-4.349-1.26-6.526-1.878
			c-0.094-0.027-0.168-0.034-0.199-0.173c5.697,0.488,11.142,1.814,16.158,4.615c2.031,1.134,3.893,2.502,5.224,4.473
			C146.621,374.534,146.557,374.589,146.5,374.651z"/>
		<path fill="#0F0F0F" d="M141.531,358.582c-0.184,0.2-0.394,0.139-0.575,0.022c-3.401-2.196-7.266-3.182-11.095-4.26
			c-0.823-0.232-1.653-0.436-2.488-0.655c3.212-1.035,10.67,1.553,14.128,4.897L141.531,358.582z"/>
		<path fill="#8A9998" d="M159.895,366.396c-0.375-0.144-0.749-0.288-1.001-0.722c0.455-0.155,0.735,0.075,1.014,0.309
			C159.904,366.12,159.899,366.258,159.895,366.396z"/>
		<path fill="#393939" d="M159.895,366.396c0.005-0.138,0.009-0.275,0.013-0.413c0.176,0.092,0.352,0.184,0.528,0.275
			c-0.005,0.125-0.009,0.25-0.014,0.375C160.247,366.554,160.071,366.475,159.895,366.396z"/>
		<path fill="#393939" d="M147.044,375.134c-0.191,0.058-0.267-0.034-0.274-0.213c0.001-0.095,0.003-0.19,0.004-0.285
			c0.223,0.107,0.331,0.269,0.246,0.521L147.044,375.134z"/>
		<path fill="#0F0F0F" d="M141.5,358.587c-0.006,0.081-0.011,0.161-0.017,0.242c-0.029-0.005-0.076-0.001-0.086-0.017
			c-0.08-0.138-0.011-0.201,0.128-0.228C141.531,358.582,141.5,358.587,141.5,358.587z"/>
		<path fill="#0F0F0F" d="M160.423,366.633c0.005-0.125,0.009-0.25,0.014-0.375c0.134,0.073,0.332,0.11,0.279,0.32
			C160.672,366.754,160.531,366.665,160.423,366.633z"/>
		<path fill="#0F0F0F" d="M146.774,374.636c-0.001,0.095-0.003,0.19-0.004,0.285c-0.16-0.02-0.254-0.106-0.27-0.27
			c0.057-0.061,0.12-0.116,0.19-0.164C146.756,374.514,146.785,374.565,146.774,374.636z"/>
		<path fill="#393939" d="M147.02,375.158c0.064,0.024,0.127,0.048,0.191,0.072c-0.035,0.037-0.069,0.074-0.104,0.11
			c-0.021-0.069-0.042-0.138-0.063-0.207C147.044,375.134,147.02,375.158,147.02,375.158z"/>
		<polygon fill="#8D9B9B" points="165.965,383.733 165.992,383.794 165.92,383.783 		"/>
		<path fill="#8D9B9B" d="M166.556,384.039c-0.028,0.019-0.059,0.056-0.086,0.054c-0.027-0.003-0.05-0.045-0.075-0.069
			c0.029-0.02,0.06-0.057,0.086-0.054C166.508,383.972,166.531,384.014,166.556,384.039z"/>
		<path fill="#8D9B9B" d="M166.985,384.369c-0.031-0.029-0.061-0.057-0.092-0.086c0.033-0.026,0.066-0.074,0.098-0.072
			c0.032,0.001,0.062,0.051,0.092,0.08C167.051,384.317,167.018,384.343,166.985,384.369z"/>
		<path fill="#393939" d="M167.512,384.482c0.025,0.023,0.05,0.046,0.074,0.069c-0.028,0.02-0.056,0.056-0.083,0.054
			c-0.026-0.002-0.05-0.041-0.075-0.065C167.457,384.521,167.484,384.501,167.512,384.482z"/>
		<path fill="#393939" d="M168.024,384.718c0.027,0.029,0.054,0.06,0.082,0.09c-0.032,0.025-0.066,0.071-0.096,0.069
			c-0.031-0.002-0.059-0.051-0.088-0.079C167.954,384.773,167.986,384.748,168.024,384.718z"/>
		<path fill="#393939" d="M168.59,385.021c0,0.027,0.011,0.063-0.002,0.078c-0.055,0.067-0.117,0.051-0.164-0.046
			c-0.004-0.009,0.051-0.059,0.085-0.07C168.531,384.978,168.564,385.008,168.59,385.021z"/>
		<path fill="#393939" d="M296.84,355.838c-1.312-0.572-2.5-1.346-3.617-2.25c1.278,0.483,2.484,1.099,3.638,1.821
			C296.853,355.552,296.846,355.695,296.84,355.838z"/>
		<path fill="#8A9998" d="M294.529,346.606c-0.66-0.045-1.145-0.456-1.678-0.784c0.746-0.152,1.322,0.23,1.915,0.552
			C294.687,346.451,294.608,346.528,294.529,346.606z"/>
		<path fill="#8A9998" d="M292.58,353.264c-0.393,0.098-0.55-0.145-0.749-0.451c0.458-0.174,0.679,0.059,0.9,0.293
			C292.723,353.199,292.673,353.252,292.58,353.264z"/>
		<path fill="#8A9998" d="M291.419,352.278c0.089,0.08,0.216,0.144,0.263,0.246c0.09,0.195-0.079,0.189-0.192,0.168
			c-0.13-0.025-0.239-0.113-0.239-0.256C291.251,352.389,291.347,352.342,291.419,352.278z"/>
		<path fill="#0F0F0F" d="M297.449,356.05c-0.034-0.034-0.063-0.063-0.092-0.092c0.057-0.029,0.112-0.067,0.173-0.081
			c0.021-0.005,0.056,0.052,0.085,0.081C297.559,355.989,297.503,356.02,297.449,356.05z"/>
		<path fill="#0F0F0F" d="M298.038,356.308c-0.054-0.03-0.11-0.061-0.166-0.092c0.029-0.029,0.063-0.085,0.085-0.081
			c0.061,0.014,0.116,0.052,0.173,0.081C298.101,356.245,298.072,356.273,298.038,356.308z"/>
		<path fill="#0F0F0F" d="M298.475,356.738c-0.158-0.087-0.28-0.2-0.141-0.383c0.146-0.192,0.29-0.041,0.43,0.03
			C298.667,356.504,298.571,356.621,298.475,356.738z"/>
		<path fill="#0F0F0F" d="M296.84,355.838c0.007-0.143,0.014-0.286,0.021-0.43c0.134,0.102,0.399,0.113,0.272,0.396
			C297.052,355.982,296.938,355.834,296.84,355.838z"/>
		<path fill="#393939" d="M292.731,353.106c0.065,0.112,0.352,0.146,0.188,0.323c-0.162,0.174-0.248-0.055-0.339-0.164
			C292.673,353.252,292.723,353.199,292.731,353.106z"/>
		<path fill="#8A9998" d="M137.528,223.476c-0.016,0.138-0.033,0.275-0.049,0.413c-1.908,0.661-3.817,1.323-5.725,1.984
			c-0.037-0.105-0.074-0.21-0.111-0.316C133.573,224.779,135.508,224.016,137.528,223.476z"/>
		<path fill="#8A9998" d="M136.463,237.805c-0.598,0.51-1.281,0.849-2.036,1.048c0.493-0.644,1.13-1.05,1.884-1.274
			C136.42,237.615,136.468,237.692,136.463,237.805z"/>
		<path fill="#8D9B9B" d="M129.448,226.531c0.656-0.503,1.204-0.645,2.059-0.837C130.811,226.319,130.246,226.414,129.448,226.531z"
			/>
		<path fill="#8D9B9B" d="M129.291,226.602c-0.364,0.267-0.554,0.444-0.906,0.326C128.598,226.688,128.821,226.595,129.291,226.602z
			"/>
		<path fill="#8A9998" d="M133.321,239.351c0.224-0.237,0.444-0.482,0.885-0.393c-0.137,0.381-0.426,0.477-0.741,0.539
			C133.418,239.447,133.37,239.398,133.321,239.351z"/>
		<path fill="#8D9B9B" d="M132.567,240.131c-0.075-0.053-0.128-0.091-0.182-0.129c0.082-0.084,0.151-0.192,0.25-0.244
			c0.107-0.056,0.253-0.036,0.18,0.139C132.775,239.995,132.65,240.057,132.567,240.131z"/>
		<path fill="#8D9B9B" d="M131.342,240.712c0.084-0.255,0.284-0.283,0.509-0.261l-0.008-0.008c-0.091,0.256-0.294,0.277-0.521,0.25
			L131.342,240.712z"/>
		<polygon fill="#8D9B9B" points="130.762,241.105 130.684,241.126 130.691,241.066 		"/>
		<path fill="#8D9B9B" d="M131.323,240.694c-0.032,0.063-0.064,0.127-0.096,0.19c-0.183-0.205,0.057-0.127,0.115-0.171
			C131.342,240.712,131.323,240.694,131.323,240.694z"/>
		<path fill="#8D9B9B" d="M131.851,240.452c0.028-0.063,0.055-0.126,0.083-0.19c0.038,0.034,0.076,0.067,0.114,0.101
			c-0.068,0.027-0.137,0.054-0.205,0.081C131.843,240.444,131.851,240.452,131.851,240.452z"/>
		<path fill="#8D9B9B" d="M133.464,239.497c-0.076,0.102-0.195,0.204-0.289,0.093c-0.109-0.127,0.054-0.182,0.145-0.239
			C133.37,239.398,133.418,239.447,133.464,239.497z"/>
		<path fill="#8D9B9B" d="M170.206,244.832c-0.06-0.304,0.101-0.453,0.37-0.523c0.105-0.012,0.149,0.038,0.14,0.14
			c-0.094,0.235-0.253,0.38-0.521,0.373L170.206,244.832z"/>
		<path fill="#393939" d="M170.577,244.308c0.172-0.203,0.317-0.445,0.713-0.511c-0.086,0.404-0.372,0.491-0.573,0.651
			C170.725,244.346,170.682,244.297,170.577,244.308z"/>
		<path fill="#8D9B9B" d="M170.196,244.821c-0.044,0.04-0.089,0.081-0.133,0.121c0.009-0.031,0.008-0.076,0.028-0.088
			c0.031-0.019,0.077-0.016,0.116-0.022C170.206,244.832,170.196,244.821,170.196,244.821z"/>
	</g>
	<path fill="#E9B076" d="M75.863,46.055c2.644,1.572,4.851,3.667,6.939,5.889c4.559,4.854,8.128,10.397,11.181,16.286
		c4.701,9.068,7.993,18.663,10.549,28.525c2.186,8.435,3.806,16.982,4.946,25.619c1.414,10.717,3.191,21.368,5.632,31.903
		c1.463,6.311,3.345,12.501,5.325,18.663c0.409,1.271,0.778,2.548,0.343,3.903c-0.198,0.616-0.419,1.214-0.78,1.755
		c-1.053,1.578-2.575,2.084-4.365,1.43c-1.275-0.466-2.313-1.296-3.274-2.226c-1.739-1.683-3.126-3.641-4.414-5.676
		c-2.115-3.342-3.782-6.92-5.496-10.473c-3.408-7.066-6.915-14.085-9.831-21.378c-3.214-8.04-5.391-16.348-6.643-24.914
		c-0.932-6.376-1.384-12.79-1.765-19.215c-0.37-6.253-0.824-12.5-1.454-18.733c-0.522-5.165-1.122-10.317-2.119-15.415
		c-0.594-3.035-1.396-6.006-2.565-8.879c-0.904-2.221-1.763-4.463-2.435-6.77C75.713,46.251,75.788,46.153,75.863,46.055z"/>
	<path fill="#E9B076" d="M75.638,46.348c-0.1-0.093-0.159-0.218-0.079-0.329c0.096-0.133,0.207-0.027,0.304,0.036
		C75.788,46.153,75.713,46.251,75.638,46.348z"/>
</g>
</svg>
